<svg width="14" height="14" viewBox="0 0 14 14" fill="none" xmlns="http://www.w3.org/2000/svg">
<path d="M4.89601 6.90245C4.81461 6.82466 4.70635 6.78125 4.59375 6.78125C4.59366 6.78125 4.58383 6.78136 4.58383 6.78136C4.46782 6.78399 4.35762 6.8326 4.27745 6.91649C4.19966 6.99789 4.15625 7.10615 4.15625 7.21875L4.15636 7.22867C4.15899 7.34468 4.2076 7.45488 4.29149 7.53505L5.89383 9.0663C6.06283 9.2278 6.32895 9.22791 6.49809 9.06655L9.70813 6.00416C9.79209 5.92406 9.8409 5.8138 9.84363 5.6978C9.84379 5.69079 9.84379 5.68378 9.84362 5.67677C9.84095 5.56804 9.79788 5.4642 9.7228 5.38551C9.64024 5.29897 9.52585 5.25 9.40625 5.25L9.3939 5.25017C9.28574 5.25323 9.18255 5.29626 9.10426 5.37095L6.19635 8.1451L4.89601 6.90245Z" fill="white"/>
<path fill-rule="evenodd" clip-rule="evenodd" d="M1.75 2.625C1.75 2.625 1.75 2.26256 2.00628 2.00628C2.00628 2.00628 2.26256 1.75 2.625 1.75H11.375C11.375 1.75 11.7374 1.75 11.9937 2.00628C11.9937 2.00628 12.25 2.26256 12.25 2.625V11.375C12.25 11.375 12.25 11.7374 11.9937 11.9937C11.9937 11.9937 11.7374 12.25 11.375 12.25H2.625C2.625 12.25 2.26256 12.25 2.00628 11.9937C2.00628 11.9937 1.75 11.7374 1.75 11.375V2.625ZM2.625 2.625V11.375H11.375V2.625H2.625Z" fill="white"/>
</svg>
