<svg width="16" height="16" viewBox="0 0 16 16" fill="none" xmlns="http://www.w3.org/2000/svg">
<path d="M5.59544 7.88852C5.50241 7.79961 5.37868 7.75 5.25 7.75C5.24989 7.75 5.23866 7.75013 5.23866 7.75013C5.10609 7.75314 4.98014 7.80869 4.88852 7.90456C4.79961 7.99759 4.75 8.12132 4.75 8.25L4.75013 8.26134C4.75314 8.39392 4.80869 8.51986 4.90456 8.61148L6.73581 10.3615C6.92895 10.5461 7.23308 10.5462 7.42639 10.3618L11.095 6.86189C11.191 6.77036 11.2467 6.64434 11.2499 6.51177C11.25 6.50376 11.25 6.49575 11.2498 6.48774C11.2468 6.36348 11.1976 6.2448 11.1118 6.15486C11.0174 6.05596 10.8867 6 10.75 6L10.7359 6.0002C10.6123 6.00369 10.4943 6.05286 10.4049 6.13822L7.08154 9.30868L5.59544 7.88852Z" fill="white"/>
<path fill-rule="evenodd" clip-rule="evenodd" d="M8 1.5C8 1.5 9.32209 1.5 10.5302 2.01101C10.5302 2.01101 11.6968 2.50442 12.5962 3.40381C12.5962 3.40381 13.4956 4.30319 13.989 5.46975C13.989 5.46975 14.5 6.67791 14.5 8C14.5 8 14.5 9.32208 13.989 10.5302C13.989 10.5302 13.4956 11.6968 12.5962 12.5962C12.5962 12.5962 11.6968 13.4956 10.5302 13.989C10.5302 13.989 9.32208 14.5 8 14.5C8 14.5 6.67791 14.5 5.46975 13.989C5.46975 13.989 4.30319 13.4956 3.40381 12.5962C3.40381 12.5962 2.50442 11.6968 2.01101 10.5302C2.01101 10.5302 1.5 9.32209 1.5 8C1.5 8 1.5 6.67791 2.01101 5.46975C2.01101 5.46975 2.50442 4.30319 3.40381 3.40381C3.40381 3.40381 4.30319 2.50442 5.46975 2.01101C5.46975 2.01101 6.67791 1.5 8 1.5ZM8 2.5C8 2.5 6.8807 2.5 5.85931 2.93201C5.85931 2.93201 4.87238 3.34945 4.11091 4.11091C4.11091 4.11091 3.34945 4.87238 2.93201 5.85931C2.93201 5.85931 2.5 6.8807 2.5 8C2.5 8 2.5 9.1193 2.93201 10.1407C2.93201 10.1407 3.34945 11.1276 4.11091 11.8891C4.11091 11.8891 4.87238 12.6506 5.85931 13.068C5.85931 13.068 6.8807 13.5 8 13.5C8 13.5 9.1193 13.5 10.1407 13.068C10.1407 13.068 11.1276 12.6506 11.8891 11.8891C11.8891 11.8891 12.6506 11.1276 13.068 10.1407C13.068 10.1407 13.5 9.1193 13.5 8C13.5 8 13.5 6.8807 13.068 5.85931C13.068 5.85931 12.6506 4.87238 11.8891 4.11091C11.8891 4.11091 11.1276 3.34945 10.1407 2.93201C10.1407 2.93201 9.1193 2.5 8 2.5Z" fill="white"/>
</svg>
