<svg width="20" height="20" viewBox="0 0 20 20" fill="none" xmlns="http://www.w3.org/2000/svg">
<path fill-rule="evenodd" clip-rule="evenodd" d="M7.12575 16.928C7.12575 16.928 6.85402 16.8142 6.00869 16.8027C6.00869 16.8027 5.28593 16.7928 4.93042 16.7278C4.93042 16.7278 4.23177 16.6 3.81587 16.1841C3.81587 16.1841 3.39746 15.7657 3.26777 15.0551C3.26777 15.0551 3.20184 14.6939 3.19041 13.9604C3.19041 13.9604 3.17743 13.1278 3.07136 12.8728C3.07136 12.8728 2.96308 12.6125 2.37311 11.9953C2.37311 11.9953 1.86578 11.4645 1.65919 11.1659C1.65919 11.1659 1.25 10.5747 1.25 10C1.25 10 1.25 9.42787 1.65261 8.84513C1.65261 8.84513 1.85611 8.55058 2.35777 8.02712C2.35777 8.02712 2.95581 7.40307 3.07195 7.12575C3.07195 7.12575 3.18575 6.85402 3.19731 6.00869C3.19731 6.00869 3.20719 5.28594 3.27221 4.93042C3.27221 4.93042 3.39998 4.23177 3.81587 3.81587C3.81587 3.81587 4.23428 3.39746 4.94488 3.26777C4.94488 3.26777 5.30614 3.20184 6.03964 3.19041C6.03964 3.19041 6.87215 3.17743 7.12717 3.07136C7.12717 3.07136 7.3875 2.96308 8.00475 2.37311C8.00475 2.37311 8.53553 1.86578 8.83406 1.65919C8.83406 1.65919 9.42534 1.25 10 1.25C10 1.25 10.5721 1.25 11.1549 1.65261C11.1549 1.65261 11.4494 1.85611 11.9729 2.35777C11.9729 2.35777 12.5969 2.95581 12.8742 3.07195C12.8742 3.07195 13.146 3.18575 13.9913 3.19731C13.9913 3.19731 14.7141 3.20719 15.0696 3.27221C15.0696 3.27221 15.7682 3.39998 16.1841 3.81587C16.1841 3.81587 16.6025 4.23427 16.7322 4.94488C16.7322 4.94488 16.7982 5.30616 16.8096 6.03964C16.8096 6.03964 16.8226 6.87215 16.9286 7.12717C16.9286 7.12717 17.0369 7.3875 17.6269 8.00475C17.6269 8.00475 18.1342 8.53553 18.3408 8.83406C18.3408 8.83406 18.75 9.42534 18.75 10C18.75 10 18.75 10.5721 18.3474 11.1549C18.3474 11.1549 18.1439 11.4494 17.6422 11.9729C17.6422 11.9729 17.0442 12.5969 16.928 12.8742C16.928 12.8742 16.8142 13.146 16.8027 13.9913C16.8027 13.9913 16.7928 14.7141 16.7278 15.0696C16.7278 15.0696 16.6 15.7682 16.1841 16.1841C16.1841 16.1841 15.7657 16.6025 15.0551 16.7322C15.0551 16.7322 14.6938 16.7982 13.9604 16.8096C13.9604 16.8096 13.1278 16.8226 12.8728 16.9286C12.8728 16.9286 12.6125 17.0369 11.9953 17.6269C11.9953 17.6269 11.4645 18.1342 11.1659 18.3408C11.1659 18.3408 10.5747 18.75 10 18.75C10 18.75 9.42787 18.75 8.84513 18.3474C8.84513 18.3474 8.55058 18.1439 8.02712 17.6422C8.02712 17.6422 7.40307 17.0442 7.12575 16.928ZM7.60862 15.7751C7.60862 15.7751 8.10021 15.981 8.892 16.7397C8.892 16.7397 9.68531 17.5 10 17.5C10 17.5 10.3189 17.5 11.1316 16.7233C11.1316 16.7233 11.9173 15.9723 12.3928 15.7745C12.3928 15.7745 12.8689 15.5765 13.9409 15.5597C13.9409 15.5597 15.0582 15.5423 15.3002 15.3002C15.3002 15.3002 15.5379 15.0626 15.5528 13.9742C15.5528 13.9742 15.5677 12.8866 15.7751 12.3914C15.7751 12.3914 15.981 11.8998 16.7397 11.108C16.7397 11.108 17.5 10.3147 17.5 10C17.5 10 17.5 9.68109 16.7233 8.86844C16.7233 8.86844 15.9723 8.08272 15.7745 7.60721C15.7745 7.60721 15.5765 7.13109 15.5597 6.05912C15.5597 6.05912 15.5423 4.94184 15.3002 4.69975C15.3002 4.69975 15.0626 4.46207 13.9742 4.44719C13.9742 4.44719 12.8866 4.43233 12.3914 4.22492C12.3914 4.22492 11.8998 4.01904 11.108 3.26025C11.108 3.26025 10.3147 2.5 10 2.5C10 2.5 9.68109 2.5 8.86844 3.27674C8.86844 3.27674 8.08272 4.02773 7.60721 4.22551C7.60721 4.22551 7.13109 4.42355 6.05912 4.44026C6.05912 4.44026 4.94184 4.45767 4.69975 4.69976C4.69975 4.69976 4.46207 4.93744 4.44719 6.02578C4.44719 6.02578 4.43233 7.11339 4.22492 7.60862C4.22492 7.60862 4.01904 8.10022 3.26025 8.892C3.26025 8.892 2.5 9.68531 2.5 10C2.5 10 2.5 10.3189 3.27674 11.1316C3.27674 11.1316 4.02773 11.9173 4.22551 12.3928C4.22551 12.3928 4.42355 12.8689 4.44026 13.9409C4.44026 13.9409 4.45767 15.0582 4.69976 15.3002C4.69976 15.3002 4.93744 15.5379 6.02578 15.5528C6.02578 15.5528 7.1134 15.5677 7.60862 15.7751Z" fill="#666666"/>
<path d="M9.375 6.25V10.625C9.375 10.9702 9.65482 11.25 10 11.25C10.3452 11.25 10.625 10.9702 10.625 10.625V6.25C10.625 5.90482 10.3452 5.625 10 5.625C9.65482 5.625 9.375 5.90482 9.375 6.25Z" fill="#666666"/>
<path d="M10.9375 13.4375C10.9375 13.9553 10.5177 14.375 10 14.375C9.48227 14.375 9.0625 13.9553 9.0625 13.4375C9.0625 12.9197 9.48227 12.5 10 12.5C10.5177 12.5 10.9375 12.9197 10.9375 13.4375Z" fill="#666666"/>
</svg>
