<svg width="30" height="30" viewBox="0 0 30 30" fill="none" xmlns="http://www.w3.org/2000/svg">
<rect width="30" height="30" rx="10" fill="white"/>
<path fill-rule="evenodd" clip-rule="evenodd" d="M14.1666 13.333V15.1419C13.1957 15.4851 12.5 16.4112 12.5 17.4997C12.5 18.8804 13.6193 19.9997 15 19.9997C16.3807 19.9997 17.5 18.8804 17.5 17.4997C17.5 16.4112 16.8043 15.4851 15.8333 15.1419V13.333C15.8333 12.8728 15.4602 12.4997 15 12.4997C14.5397 12.4997 14.1666 12.8728 14.1666 13.333Z" fill="#0074A3" fill-opacity="0.7"/>
<path d="M15.8333 9.99967C15.8333 9.53944 15.4602 9.16634 15 9.16634C14.5397 9.16634 14.1666 9.53944 14.1666 9.99967V10.833C14.1666 11.2932 14.5397 11.6663 15 11.6663C15.4602 11.6663 15.8333 11.2932 15.8333 10.833V9.99967Z" fill="#0074A3" fill-opacity="0.7"/>
<path d="M7.91665 16.6663C7.91665 16.2061 8.28974 15.833 8.74998 15.833H9.58331C10.0436 15.833 10.4166 16.2061 10.4166 16.6663C10.4166 17.1266 10.0436 17.4997 9.58331 17.4997H8.74998C8.28974 17.4997 7.91665 17.1266 7.91665 16.6663Z" fill="#0074A3" fill-opacity="0.7"/>
<path d="M11.0059 11.9104C10.6805 11.585 10.1528 11.585 9.82739 11.9104C9.50195 12.2359 9.50195 12.7635 9.82739 13.0889L10.4166 13.6782C10.7421 14.0036 11.2697 14.0036 11.5952 13.6782C11.9206 13.3527 11.9206 12.8251 11.5952 12.4997L11.0059 11.9104Z" fill="#0074A3" fill-opacity="0.7"/>
<path d="M19.5833 16.6663C19.5833 16.2061 19.9564 15.833 20.4166 15.833H21.25C21.7102 15.833 22.0833 16.2061 22.0833 16.6663C22.0833 17.1266 21.7102 17.4997 21.25 17.4997H20.4166C19.9564 17.4997 19.5833 17.1266 19.5833 16.6663Z" fill="#0074A3" fill-opacity="0.7"/>
<path d="M20.3452 13.0889C20.6706 12.7635 20.6706 12.2359 20.3452 11.9104C20.0197 11.585 19.4921 11.585 19.1666 11.9104L18.5774 12.4997C18.252 12.8251 18.252 13.3527 18.5774 13.6782C18.9028 14.0036 19.4305 14.0036 19.7559 13.6782L20.3452 13.0889Z" fill="#0074A3" fill-opacity="0.7"/>
<path fill-rule="evenodd" clip-rule="evenodd" d="M15 7.08301C9.93737 7.08301 5.83331 11.1871 5.83331 16.2497C5.83331 18.5931 6.59813 20.9789 8.13738 22.648C8.29515 22.819 8.51726 22.9163 8.74998 22.9163H21.25C21.4827 22.9163 21.7048 22.819 21.8626 22.648C23.4018 20.9789 24.1666 18.5931 24.1666 16.2497C24.1666 11.1871 20.0626 7.08301 15 7.08301ZM7.49998 16.2497C7.49998 12.1075 10.8578 8.74967 15 8.74967C19.1421 8.74967 22.5 12.1075 22.5 16.2497C22.5 18.1305 21.9223 19.957 20.8699 21.2497H9.13009C8.07765 19.957 7.49998 18.1305 7.49998 16.2497Z" fill="#0074A3" fill-opacity="0.7"/>
</svg>
