<svg width="75" height="24" viewBox="0 0 75 24" fill="none" xmlns="http://www.w3.org/2000/svg">
<rect width="75" height="24" rx="4" fill="#E14101"/>
<rect x="10" y="6" width="12" height="12" rx="2" fill="#E14101"/>
<path fill-rule="evenodd" clip-rule="evenodd" d="M19.0115 9.14411C18.8045 8.9377 18.4652 8.9522 18.2766 9.17552L14.9828 13.0739L13.7767 11.8144C13.5827 11.6118 13.2601 11.6084 13.0619 11.8068L12.6497 12.2193C12.4576 12.4116 12.4543 12.7222 12.6423 12.9185L14.6348 14.9992C14.7794 15.1502 14.9955 15.1905 15.1783 15.1191C15.2851 15.0979 15.386 15.0417 15.4623 14.9514L15.7766 14.5795L16.1075 14.2483L16.0803 14.22L19.4511 10.2304C19.6191 10.0316 19.6065 9.73728 19.4222 9.55357L19.0115 9.14411Z" fill="white"/>
<rect x="10" y="6" width="12" height="12" rx="2" stroke="white" stroke-width="2"/>
<path d="M29.624 7.66C30.512 7.66 31.288 7.832 31.952 8.176C32.624 8.512 33.14 9 33.5 9.64C33.868 10.272 34.052 11.012 34.052 11.86C34.052 12.708 33.868 13.444 33.5 14.068C33.14 14.692 32.624 15.172 31.952 15.508C31.288 15.836 30.512 16 29.624 16H26.9V7.66H29.624ZM29.624 14.884C30.6 14.884 31.348 14.62 31.868 14.092C32.388 13.564 32.648 12.82 32.648 11.86C32.648 10.892 32.388 10.136 31.868 9.592C31.348 9.048 30.6 8.776 29.624 8.776H28.268V14.884H29.624ZM41.4678 12.532C41.4678 12.78 41.4518 13.004 41.4198 13.204H36.3678C36.4078 13.732 36.6038 14.156 36.9558 14.476C37.3078 14.796 37.7398 14.956 38.2518 14.956C38.9878 14.956 39.5078 14.648 39.8118 14.032H41.2878C41.0878 14.64 40.7238 15.14 40.1958 15.532C39.6758 15.916 39.0278 16.108 38.2518 16.108C37.6198 16.108 37.0518 15.968 36.5478 15.688C36.0518 15.4 35.6598 15 35.3718 14.488C35.0918 13.968 34.9518 13.368 34.9518 12.688C34.9518 12.008 35.0878 11.412 35.3598 10.9C35.6398 10.38 36.0278 9.98 36.5238 9.7C37.0278 9.42 37.6038 9.28 38.2518 9.28C38.8758 9.28 39.4318 9.416 39.9198 9.688C40.4078 9.96 40.7878 10.344 41.0598 10.84C41.3318 11.328 41.4678 11.892 41.4678 12.532ZM40.0398 12.1C40.0318 11.596 39.8518 11.192 39.4998 10.888C39.1478 10.584 38.7118 10.432 38.1918 10.432C37.7198 10.432 37.3158 10.584 36.9798 10.888C36.6438 11.184 36.4438 11.588 36.3798 12.1H40.0398ZM44.1821 7.12V16H42.8141V7.12H44.1821ZM52.0381 12.532C52.0381 12.78 52.0221 13.004 51.9901 13.204H46.9381C46.9781 13.732 47.1741 14.156 47.5261 14.476C47.8781 14.796 48.3101 14.956 48.8221 14.956C49.5581 14.956 50.0781 14.648 50.3821 14.032H51.8581C51.6581 14.64 51.2941 15.14 50.7661 15.532C50.2461 15.916 49.5981 16.108 48.8221 16.108C48.1901 16.108 47.6221 15.968 47.1181 15.688C46.6221 15.4 46.2301 15 45.9421 14.488C45.6621 13.968 45.5221 13.368 45.5221 12.688C45.5221 12.008 45.6581 11.412 45.9301 10.9C46.2101 10.38 46.5981 9.98 47.0941 9.7C47.5981 9.42 48.1741 9.28 48.8221 9.28C49.4461 9.28 50.0021 9.416 50.4901 9.688C50.9781 9.96 51.3581 10.344 51.6301 10.84C51.9021 11.328 52.0381 11.892 52.0381 12.532ZM50.6101 12.1C50.6021 11.596 50.4221 11.192 50.0701 10.888C49.7181 10.584 49.2821 10.432 48.7621 10.432C48.2901 10.432 47.8861 10.584 47.5501 10.888C47.2141 11.184 47.0141 11.588 46.9501 12.1H50.6101ZM54.9804 10.504V14.164C54.9804 14.412 55.0364 14.592 55.1484 14.704C55.2684 14.808 55.4684 14.86 55.7484 14.86H56.5884V16H55.5084C54.8924 16 54.4204 15.856 54.0924 15.568C53.7644 15.28 53.6004 14.812 53.6004 14.164V10.504H52.8204V9.388H53.6004V7.744H54.9804V9.388H56.5884V10.504H54.9804ZM63.9092 12.532C63.9092 12.78 63.8932 13.004 63.8612 13.204H58.8092C58.8492 13.732 59.0452 14.156 59.3972 14.476C59.7492 14.796 60.1812 14.956 60.6932 14.956C61.4292 14.956 61.9492 14.648 62.2532 14.032H63.7292C63.5292 14.64 63.1652 15.14 62.6372 15.532C62.1172 15.916 61.4692 16.108 60.6932 16.108C60.0612 16.108 59.4932 15.968 58.9892 15.688C58.4932 15.4 58.1012 15 57.8132 14.488C57.5332 13.968 57.3932 13.368 57.3932 12.688C57.3932 12.008 57.5292 11.412 57.8012 10.9C58.0812 10.38 58.4692 9.98 58.9652 9.7C59.4692 9.42 60.0452 9.28 60.6932 9.28C61.3172 9.28 61.8732 9.416 62.3612 9.688C62.8492 9.96 63.2292 10.344 63.5012 10.84C63.7732 11.328 63.9092 11.892 63.9092 12.532ZM62.4812 12.1C62.4732 11.596 62.2932 11.192 61.9412 10.888C61.5892 10.584 61.1532 10.432 60.6332 10.432C60.1612 10.432 59.7572 10.584 59.4212 10.888C59.0852 11.184 58.8852 11.588 58.8212 12.1H62.4812Z" fill="white"/>
</svg>
