<svg width="14" height="14" viewBox="0 0 14 14" fill="none" xmlns="http://www.w3.org/2000/svg">
<rect x="1" y="1" width="12" height="12" rx="2" fill="#E14101"/>
<path fill-rule="evenodd" clip-rule="evenodd" d="M10.0115 4.14411C9.80445 3.9377 9.46525 3.9522 9.27656 4.17552L5.98283 8.07391L4.77669 6.81438C4.58271 6.61182 4.26009 6.60839 4.06186 6.80679L3.64972 7.21928C3.45757 7.41159 3.45428 7.72217 3.64229 7.9185L5.63481 9.99921C5.77941 10.1502 5.9955 10.1905 6.17825 10.1191C6.2851 10.0979 6.38602 10.0417 6.46233 9.95143L6.77658 9.57949L7.10747 9.24832L7.08033 9.21998L10.4511 5.23036C10.6191 5.0316 10.6065 4.73728 10.4222 4.55357L10.0115 4.14411Z" fill="white"/>
<rect x="1" y="1" width="12" height="12" rx="2" stroke="white" stroke-width="2"/>
</svg>
