<svg width="158" height="30" viewBox="0 0 158 30" fill="none" xmlns="http://www.w3.org/2000/svg">
<rect width="158" height="30" rx="10" fill="#00A65A" fill-opacity="0.7"/>
<path d="M24.896 14.9025C24.8146 14.8247 24.7063 14.7812 24.5938 14.7812C24.5937 14.7812 24.5838 14.7814 24.5838 14.7814C24.4678 14.784 24.3576 14.8326 24.2775 14.9165C24.1997 14.9979 24.1562 15.1062 24.1562 15.2188L24.1564 15.2287C24.159 15.3447 24.2076 15.4549 24.2915 15.535L25.8938 17.0663C26.0628 17.2278 26.3289 17.2279 26.4981 17.0666L29.7081 14.0042C29.7921 13.9241 29.8409 13.8138 29.8436 13.6978C29.8438 13.6908 29.8438 13.6838 29.8436 13.6768C29.841 13.568 29.7979 13.4642 29.7228 13.3855C29.6402 13.299 29.5259 13.25 29.4062 13.25L29.3939 13.2502C29.2857 13.2532 29.1825 13.2963 29.1043 13.3709L26.1964 16.1451L24.896 14.9025Z" fill="white"/>
<path fill-rule="evenodd" clip-rule="evenodd" d="M21.75 10.625C21.75 10.625 21.75 10.2626 22.0063 10.0063C22.0063 10.0063 22.2626 9.75 22.625 9.75H31.375C31.375 9.75 31.7374 9.75 31.9937 10.0063C31.9937 10.0063 32.25 10.2626 32.25 10.625V19.375C32.25 19.375 32.25 19.7374 31.9937 19.9937C31.9937 19.9937 31.7374 20.25 31.375 20.25H22.625C22.625 20.25 22.2626 20.25 22.0063 19.9937C22.0063 19.9937 21.75 19.7374 21.75 19.375V10.625ZM22.625 10.625V19.375H31.375V10.625H22.625Z" fill="white"/>
<path d="M41.624 10.66C42.512 10.66 43.288 10.832 43.952 11.176C44.624 11.512 45.14 12 45.5 12.64C45.868 13.272 46.052 14.012 46.052 14.86C46.052 15.708 45.868 16.444 45.5 17.068C45.14 17.692 44.624 18.172 43.952 18.508C43.288 18.836 42.512 19 41.624 19H38.9V10.66H41.624ZM41.624 17.884C42.6 17.884 43.348 17.62 43.868 17.092C44.388 16.564 44.648 15.82 44.648 14.86C44.648 13.892 44.388 13.136 43.868 12.592C43.348 12.048 42.6 11.776 41.624 11.776H40.268V17.884H41.624ZM50.2758 19.108C49.6518 19.108 49.0878 18.968 48.5838 18.688C48.0798 18.4 47.6838 18 47.3958 17.488C47.1078 16.968 46.9638 16.368 46.9638 15.688C46.9638 15.016 47.1118 14.42 47.4078 13.9C47.7038 13.38 48.1078 12.98 48.6198 12.7C49.1318 12.42 49.7038 12.28 50.3358 12.28C50.9678 12.28 51.5398 12.42 52.0518 12.7C52.5638 12.98 52.9678 13.38 53.2638 13.9C53.5598 14.42 53.7078 15.016 53.7078 15.688C53.7078 16.36 53.5558 16.956 53.2518 17.476C52.9478 17.996 52.5318 18.4 52.0038 18.688C51.4838 18.968 50.9078 19.108 50.2758 19.108ZM50.2758 17.92C50.6278 17.92 50.9558 17.836 51.2598 17.668C51.5718 17.5 51.8238 17.248 52.0158 16.912C52.2078 16.576 52.3038 16.168 52.3038 15.688C52.3038 15.208 52.2118 14.804 52.0278 14.476C51.8438 14.14 51.5998 13.888 51.2958 13.72C50.9918 13.552 50.6638 13.468 50.3118 13.468C49.9598 13.468 49.6318 13.552 49.3278 13.72C49.0318 13.888 48.7958 14.14 48.6198 14.476C48.4438 14.804 48.3558 15.208 48.3558 15.688C48.3558 16.4 48.5358 16.952 48.8958 17.344C49.2638 17.728 49.7238 17.92 50.2758 17.92ZM63.9402 12.388L61.8882 19H60.4482L59.1162 14.116L57.7842 19H56.3442L54.2802 12.388H55.6722L57.0522 17.704L58.4562 12.388H59.8842L61.2282 17.68L62.5962 12.388H63.9402ZM68.2985 12.28C68.8185 12.28 69.2825 12.388 69.6905 12.604C70.1065 12.82 70.4305 13.14 70.6625 13.564C70.8945 13.988 71.0105 14.5 71.0105 15.1V19H69.6545V15.304C69.6545 14.712 69.5065 14.26 69.2105 13.948C68.9145 13.628 68.5105 13.468 67.9985 13.468C67.4865 13.468 67.0785 13.628 66.7745 13.948C66.4785 14.26 66.3305 14.712 66.3305 15.304V19H64.9625V12.388H66.3305V13.144C66.5545 12.872 66.8385 12.66 67.1825 12.508C67.5345 12.356 67.9065 12.28 68.2985 12.28ZM74.1235 10.12V19H72.7555V10.12H74.1235ZM78.7875 19.108C78.1635 19.108 77.5995 18.968 77.0955 18.688C76.5915 18.4 76.1955 18 75.9075 17.488C75.6195 16.968 75.4755 16.368 75.4755 15.688C75.4755 15.016 75.6235 14.42 75.9195 13.9C76.2155 13.38 76.6195 12.98 77.1315 12.7C77.6435 12.42 78.2155 12.28 78.8475 12.28C79.4795 12.28 80.0515 12.42 80.5635 12.7C81.0755 12.98 81.4795 13.38 81.7755 13.9C82.0715 14.42 82.2195 15.016 82.2195 15.688C82.2195 16.36 82.0675 16.956 81.7635 17.476C81.4595 17.996 81.0435 18.4 80.5155 18.688C79.9955 18.968 79.4195 19.108 78.7875 19.108ZM78.7875 17.92C79.1395 17.92 79.4675 17.836 79.7715 17.668C80.0835 17.5 80.3355 17.248 80.5275 16.912C80.7195 16.576 80.8155 16.168 80.8155 15.688C80.8155 15.208 80.7235 14.804 80.5395 14.476C80.3555 14.14 80.1115 13.888 79.8075 13.72C79.5035 13.552 79.1755 13.468 78.8235 13.468C78.4715 13.468 78.1435 13.552 77.8395 13.72C77.5435 13.888 77.3075 14.14 77.1315 14.476C76.9555 14.804 76.8675 15.208 76.8675 15.688C76.8675 16.4 77.0475 16.952 77.4075 17.344C77.7755 17.728 78.2355 17.92 78.7875 17.92ZM83.1159 15.664C83.1159 15 83.2519 14.412 83.5239 13.9C83.8039 13.388 84.1799 12.992 84.6519 12.712C85.1319 12.424 85.6599 12.28 86.2359 12.28C86.7559 12.28 87.2079 12.384 87.5919 12.592C87.9839 12.792 88.2959 13.044 88.5279 13.348V12.388H89.9079V19H88.5279V18.016C88.2959 18.328 87.9799 18.588 87.5799 18.796C87.1799 19.004 86.7239 19.108 86.2119 19.108C85.6439 19.108 85.1239 18.964 84.6519 18.676C84.1799 18.38 83.8039 17.972 83.5239 17.452C83.2519 16.924 83.1159 16.328 83.1159 15.664ZM88.5279 15.688C88.5279 15.232 88.4319 14.836 88.2399 14.5C88.0559 14.164 87.8119 13.908 87.5079 13.732C87.2039 13.556 86.8759 13.468 86.5239 13.468C86.1719 13.468 85.8439 13.556 85.5399 13.732C85.2359 13.9 84.9879 14.152 84.7959 14.488C84.6119 14.816 84.5199 15.208 84.5199 15.664C84.5199 16.12 84.6119 16.52 84.7959 16.864C84.9879 17.208 85.2359 17.472 85.5399 17.656C85.8519 17.832 86.1799 17.92 86.5239 17.92C86.8759 17.92 87.2039 17.832 87.5079 17.656C87.8119 17.48 88.0559 17.224 88.2399 16.888C88.4319 16.544 88.5279 16.144 88.5279 15.688ZM91.2487 15.664C91.2487 15 91.3847 14.412 91.6567 13.9C91.9367 13.388 92.3127 12.992 92.7847 12.712C93.2647 12.424 93.7967 12.28 94.3807 12.28C94.8127 12.28 95.2367 12.376 95.6527 12.568C96.0767 12.752 96.4127 13 96.6607 13.312V10.12H98.0407V19H96.6607V18.004C96.4367 18.324 96.1247 18.588 95.7247 18.796C95.3327 19.004 94.8807 19.108 94.3687 19.108C93.7927 19.108 93.2647 18.964 92.7847 18.676C92.3127 18.38 91.9367 17.972 91.6567 17.452C91.3847 16.924 91.2487 16.328 91.2487 15.664ZM96.6607 15.688C96.6607 15.232 96.5647 14.836 96.3727 14.5C96.1887 14.164 95.9447 13.908 95.6407 13.732C95.3367 13.556 95.0087 13.468 94.6567 13.468C94.3047 13.468 93.9767 13.556 93.6727 13.732C93.3687 13.9 93.1207 14.152 92.9287 14.488C92.7447 14.816 92.6527 15.208 92.6527 15.664C92.6527 16.12 92.7447 16.52 92.9287 16.864C93.1207 17.208 93.3687 17.472 93.6727 17.656C93.9847 17.832 94.3127 17.92 94.6567 17.92C95.0087 17.92 95.3367 17.832 95.6407 17.656C95.9447 17.48 96.1887 17.224 96.3727 16.888C96.5647 16.544 96.6607 16.144 96.6607 15.688ZM108.787 13.144C108.787 13.568 108.687 13.968 108.487 14.344C108.287 14.72 107.967 15.028 107.527 15.268C107.087 15.5 106.523 15.616 105.835 15.616H104.323V19H102.955V10.66H105.835C106.475 10.66 107.015 10.772 107.455 10.996C107.903 11.212 108.235 11.508 108.451 11.884C108.675 12.26 108.787 12.68 108.787 13.144ZM105.835 14.5C106.355 14.5 106.743 14.384 106.999 14.152C107.255 13.912 107.383 13.576 107.383 13.144C107.383 12.232 106.867 11.776 105.835 11.776H104.323V14.5H105.835ZM111.459 10.66V19H110.091V10.66H111.459ZM122.205 13.144C122.205 13.568 122.105 13.968 121.905 14.344C121.705 14.72 121.385 15.028 120.945 15.268C120.505 15.5 119.941 15.616 119.253 15.616H117.741V19H116.373V10.66H119.253C119.893 10.66 120.433 10.772 120.873 10.996C121.321 11.212 121.653 11.508 121.869 11.884C122.093 12.26 122.205 12.68 122.205 13.144ZM119.253 14.5C119.773 14.5 120.161 14.384 120.417 14.152C120.673 13.912 120.801 13.576 120.801 13.144C120.801 12.232 120.285 11.776 119.253 11.776H117.741V14.5H119.253ZM126.233 10.66C127.121 10.66 127.897 10.832 128.561 11.176C129.233 11.512 129.749 12 130.109 12.64C130.477 13.272 130.661 14.012 130.661 14.86C130.661 15.708 130.477 16.444 130.109 17.068C129.749 17.692 129.233 18.172 128.561 18.508C127.897 18.836 127.121 19 126.233 19H123.509V10.66H126.233ZM126.233 17.884C127.209 17.884 127.957 17.62 128.477 17.092C128.997 16.564 129.257 15.82 129.257 14.86C129.257 13.892 128.997 13.136 128.477 12.592C127.957 12.048 127.209 11.776 126.233 11.776H124.877V17.884H126.233ZM136.925 10.66V11.776H133.385V14.236H136.145V15.352H133.385V19H132.017V10.66H136.925Z" fill="white"/>
</svg>
