<svg width="14" height="14" viewBox="0 0 14 14" fill="none" xmlns="http://www.w3.org/2000/svg">
<path fill-rule="evenodd" clip-rule="evenodd" d="M11.9583 2.04199C12.2805 2.04199 12.5417 2.30316 12.5417 2.62533L12.5422 5.07684C12.5461 5.1155 12.5459 5.15425 12.5418 5.19247L12.5417 5.25033C12.5417 5.34871 12.493 5.43571 12.4183 5.48854C12.3782 5.53791 12.3288 5.58127 12.2709 5.61583L9.04167 7.54312V11.667C9.04167 11.8281 8.91108 11.9587 8.75 11.9587H8.16667C8.00558 11.9587 7.875 11.8281 7.875 11.667V7.29199C7.875 7.20366 7.89463 7.11991 7.92977 7.04488C7.97434 6.93749 8.05265 6.84324 8.15994 6.7792L11.375 4.85978V3.20866H2.91667V4.88049L6.03572 6.74473C6.25813 6.82701 6.41667 7.04099 6.41667 7.29199V10.5003C6.41667 10.6614 6.28608 10.792 6.125 10.792H5.54167C5.38058 10.792 5.25 10.6614 5.25 10.5003V7.56353L2.0264 5.63625C1.95406 5.593 1.89494 5.53601 1.85042 5.47057C1.78895 5.41718 1.75 5.3383 1.75 5.25033V2.62533C1.75 2.30316 2.01117 2.04199 2.33333 2.04199H11.9583Z" fill="#4E5969"/>
</svg>
