<svg width="16" height="16" viewBox="0 0 16 16" fill="none" xmlns="http://www.w3.org/2000/svg">
<path d="M10.5 8H5C4.72386 8 4.5 8.22386 4.5 8.5C4.5 8.77614 4.72386 9 5 9H11C11.2761 9 11.5 8.77614 11.5 8.5V6.5C11.5 6.22386 11.2761 6 11 6C10.7239 6 10.5 6.22386 10.5 6.5V8Z" fill="white"/>
<path d="M4.64645 8.85355L6.14629 10.3534C6.24006 10.4472 6.36739 10.5 6.5 10.5C6.63261 10.5 6.75979 10.4473 6.85355 10.3536C6.94732 10.2598 7 10.1326 7 10C7 9.86739 6.94732 9.74021 6.85355 9.64645L5.70711 8.5L6.85355 7.35355C6.94732 7.25979 7 7.13261 7 7C7 6.86739 6.94732 6.74021 6.85355 6.64645C6.75979 6.55268 6.63261 6.5 6.5 6.5C6.36739 6.5 6.24021 6.55268 6.14645 6.64645L4.64645 8.14645C4.45118 8.34171 4.45118 8.65829 4.64645 8.85355Z" fill="white"/>
<path fill-rule="evenodd" clip-rule="evenodd" d="M1.5 3.5C1.5 3.5 1.5 3.08579 1.79289 2.79289C1.79289 2.79289 2.08579 2.5 2.5 2.5H13.5C13.5 2.5 13.9142 2.5 14.2071 2.79289C14.2071 2.79289 14.5 3.08579 14.5 3.5V12.5C14.5 12.5 14.5 12.9142 14.2071 13.2071C14.2071 13.2071 13.9142 13.5 13.5 13.5H2.5C2.5 13.5 2.08579 13.5 1.79289 13.2071C1.79289 13.2071 1.5 12.9142 1.5 12.5V3.5ZM2.5 3.5V12.5H13.5V3.5H2.5Z" fill="white"/>
</svg>
