<svg width="16" height="16" viewBox="0 0 16 16" fill="none" xmlns="http://www.w3.org/2000/svg">
<path d="M14.0001 8.00047C14.0001 8.13308 13.9474 8.26026 13.8536 8.35403C13.7598 8.44779 13.6327 8.50047 13.5001 8.50047H8.00005C7.86744 8.50047 7.74027 8.44779 7.6465 8.35403C7.55273 8.26026 7.50005 8.13308 7.50005 8.00047C7.50005 7.86786 7.55273 7.74069 7.6465 7.64692C7.74027 7.55315 7.86744 7.50047 8.00005 7.50047H13.5001C13.6327 7.50047 13.7598 7.55315 13.8536 7.64692C13.9474 7.74069 14.0001 7.86786 14.0001 8.00047ZM8.00005 4.50047H13.5001C13.6327 4.50047 13.7598 4.44779 13.8536 4.35403C13.9474 4.26026 14.0001 4.13308 14.0001 4.00047C14.0001 3.86786 13.9474 3.74069 13.8536 3.64692C13.7598 3.55315 13.6327 3.50047 13.5001 3.50047H8.00005C7.86744 3.50047 7.74027 3.55315 7.6465 3.64692C7.55273 3.74069 7.50005 3.86786 7.50005 4.00047C7.50005 4.13308 7.55273 4.26026 7.6465 4.35403C7.74027 4.44779 7.86744 4.50047 8.00005 4.50047ZM13.5001 11.5005H8.00005C7.86744 11.5005 7.74027 11.5532 7.6465 11.6469C7.55273 11.7407 7.50005 11.8679 7.50005 12.0005C7.50005 12.1331 7.55273 12.2603 7.6465 12.354C7.74027 12.4478 7.86744 12.5005 8.00005 12.5005H13.5001C13.6327 12.5005 13.7598 12.4478 13.8536 12.354C13.9474 12.2603 14.0001 12.1331 14.0001 12.0005C14.0001 11.8679 13.9474 11.7407 13.8536 11.6469C13.7598 11.5532 13.6327 11.5005 13.5001 11.5005ZM5.41255 2.63172L3.5813 4.31922L2.83755 3.63172C2.73922 3.54557 2.61106 3.50135 2.48053 3.50854C2.34999 3.51573 2.22747 3.57376 2.1392 3.6702C2.05093 3.76664 2.00395 3.89381 2.00832 4.02447C2.01268 4.15514 2.06805 4.27889 2.16255 4.36922L3.2438 5.36922C3.33595 5.45361 3.45635 5.50043 3.5813 5.50047C3.70818 5.50078 3.83067 5.45402 3.92505 5.36922L6.08755 3.36922C6.13762 3.32535 6.17843 3.27192 6.20757 3.21207C6.23672 3.15221 6.25362 3.08714 6.25728 3.02067C6.26094 2.9542 6.25129 2.88767 6.2289 2.82498C6.20651 2.76228 6.17182 2.70469 6.12687 2.65558C6.08193 2.60648 6.02763 2.56684 5.96716 2.539C5.90669 2.51115 5.84127 2.49567 5.77473 2.49344C5.7082 2.49122 5.64189 2.50231 5.57969 2.52605C5.5175 2.5498 5.46068 2.58572 5.41255 2.63172ZM5.41255 6.63172L3.5813 8.31922L2.83755 7.63172C2.78943 7.58572 2.7326 7.5498 2.67041 7.52605C2.60822 7.50231 2.54191 7.49122 2.47537 7.49344C2.40884 7.49567 2.34342 7.51115 2.28295 7.539C2.22248 7.56684 2.16818 7.60648 2.12323 7.65559C2.07828 7.70469 2.0436 7.76228 2.0212 7.82498C1.99881 7.88767 1.98916 7.9542 1.99282 8.02067C1.99649 8.08714 2.01339 8.15222 2.04253 8.21207C2.07168 8.27192 2.11248 8.32535 2.16255 8.36922L3.2438 9.36922C3.33595 9.45361 3.45635 9.50043 3.5813 9.50047C3.70818 9.50078 3.83067 9.45402 3.92505 9.36922L6.08755 7.36922C6.13762 7.32535 6.17843 7.27192 6.20757 7.21207C6.23672 7.15222 6.25362 7.08714 6.25728 7.02067C6.26094 6.9542 6.25129 6.88767 6.2289 6.82498C6.20651 6.76228 6.17182 6.70469 6.12687 6.65559C6.08193 6.60648 6.02763 6.56684 5.96716 6.539C5.90669 6.51115 5.84127 6.49567 5.77473 6.49344C5.7082 6.49122 5.64189 6.50231 5.57969 6.52605C5.5175 6.5498 5.46068 6.58572 5.41255 6.63172ZM5.41255 10.6317L3.5813 12.3192L2.83755 11.6317C2.78943 11.5857 2.7326 11.5498 2.67041 11.5261C2.60822 11.5023 2.54191 11.4912 2.47537 11.4934C2.40884 11.4957 2.34342 11.5112 2.28295 11.539C2.22248 11.5668 2.16818 11.6065 2.12323 11.6556C2.07828 11.7047 2.0436 11.7623 2.0212 11.825C1.99881 11.8877 1.98916 11.9542 1.99282 12.0207C1.99649 12.0871 2.01339 12.1522 2.04253 12.2121C2.07168 12.2719 2.11248 12.3253 2.16255 12.3692L3.2438 13.3692C3.33595 13.4536 3.45635 13.5004 3.5813 13.5005C3.70818 13.5008 3.83067 13.454 3.92505 13.3692L6.08755 11.3692C6.18206 11.2789 6.23742 11.1551 6.24179 11.0245C6.24615 10.8938 6.19917 10.7666 6.1109 10.6702C6.02264 10.5738 5.90011 10.5157 5.76957 10.5085C5.63904 10.5013 5.51088 10.5456 5.41255 10.6317Z" fill="white"/>
</svg>
