<svg width="30" height="30" viewBox="0 0 30 30" fill="none" xmlns="http://www.w3.org/2000/svg">
<rect width="30" height="30" rx="10" fill="white"/>
<path d="M12.0833 7.5H8.33331C7.64296 7.5 7.08331 8.05964 7.08331 8.75V21.25C7.08331 21.9404 7.64296 22.5 8.33331 22.5H12.0833C12.7737 22.5 13.3333 21.9404 13.3333 21.25V8.75C13.3333 8.05964 12.7737 7.5 12.0833 7.5Z" fill="#0074A3" fill-opacity="0.7"/>
<path fill-rule="evenodd" clip-rule="evenodd" d="M17.5 7.5H21.6667C22.357 7.5 22.9167 8.05964 22.9167 8.75V12.5C22.9167 13.1904 22.357 13.75 21.6667 13.75H17.5C16.8096 13.75 16.25 13.1904 16.25 12.5V8.75C16.25 8.05964 16.8096 7.5 17.5 7.5Z" fill="#0074A3" fill-opacity="0.7"/>
<path fill-rule="evenodd" clip-rule="evenodd" d="M17.5 16.25H21.6667C22.357 16.25 22.9167 16.8096 22.9167 17.5V21.25C22.9167 21.9404 22.357 22.5 21.6667 22.5H17.5C16.8096 22.5 16.25 21.9404 16.25 21.25V17.5C16.25 16.8096 16.8096 16.25 17.5 16.25Z" fill="#0074A3" fill-opacity="0.7"/>
</svg>
