<svg width="20" height="20" viewBox="0 0 20 20" fill="none" xmlns="http://www.w3.org/2000/svg">
<path d="M9.375 3.125V16.875C9.375 17.2202 9.65482 17.5 10 17.5C10.3452 17.5 10.625 17.2202 10.625 16.875V3.125C10.625 2.77982 10.3452 2.5 10 2.5C9.65482 2.5 9.375 2.77982 9.375 3.125Z" fill="#666666"/>
<path d="M8.125 17.5H11.875C12.2202 17.5 12.5 17.2202 12.5 16.875C12.5 16.5298 12.2202 16.25 11.875 16.25H8.125C7.77982 16.25 7.5 16.5298 7.5 16.875C7.5 17.2202 7.77982 17.5 8.125 17.5Z" fill="#666666"/>
<path d="M15.7606 4.98512C16.0465 4.92157 16.25 4.66794 16.25 4.37501L16.25 4.36751C16.2494 4.32441 16.2445 4.28149 16.2351 4.23942C16.1992 4.07761 16.1004 3.9367 15.9605 3.84771C15.8603 3.7839 15.7439 3.75 15.625 3.75L15.6099 3.75018C15.5693 3.75117 15.529 3.75609 15.4894 3.76488L4.23964 6.26483C4.07783 6.30079 3.9367 6.39961 3.84771 6.53945C3.7839 6.63973 3.75 6.75613 3.75 6.875L3.75018 6.89014C3.75117 6.93067 3.75609 6.97101 3.76488 7.01058C3.82843 7.29654 4.08206 7.5 4.375 7.5L4.38249 7.49996C4.42559 7.49944 4.46851 7.49447 4.51058 7.48512L15.7606 4.98512Z" fill="#666666"/>
<path fill-rule="evenodd" clip-rule="evenodd" d="M3.7947 6.64289C3.85823 6.48408 3.98407 6.35824 4.14288 6.29472C4.46337 6.16652 4.8271 6.3224 4.9553 6.64289L7.4553 12.8929C7.48483 12.9667 7.5 13.0455 7.5 13.125C7.5 13.125 7.5 14.4167 6.29122 15.1211C6.29122 15.1211 5.42639 15.625 4.375 15.625C4.375 15.625 3.32361 15.625 2.45878 15.1211C2.45878 15.1211 1.25 14.4167 1.25 13.125C1.25 13.0455 1.26517 12.9667 1.2947 12.8929L3.7947 6.64289ZM2.50533 13.2321L4.375 8.55788L6.24467 13.2321C6.24467 13.2321 6.19403 13.731 5.6619 14.0411C5.6619 14.0411 5.08877 14.375 4.375 14.375C4.375 14.375 3.66123 14.375 3.0881 14.0411C3.0881 14.0411 2.55597 13.731 2.50533 13.2321Z" fill="#666666"/>
<path fill-rule="evenodd" clip-rule="evenodd" d="M15.0447 4.14289C15.1082 3.98408 15.2341 3.85824 15.3929 3.79472C15.7134 3.66652 16.0771 3.8224 16.2053 4.14289L18.7053 10.3929C18.7348 10.4667 18.75 10.5455 18.75 10.625C18.75 10.625 18.75 11.9167 17.5412 12.6211C17.5412 12.6211 16.6764 13.125 15.625 13.125C15.625 13.125 14.5736 13.125 13.7088 12.6211C13.7088 12.6211 12.5 11.9167 12.5 10.625C12.5 10.5455 12.5152 10.4667 12.5447 10.3929L15.0447 4.14289ZM13.7553 10.7321L15.625 6.05788L17.4947 10.7321C17.4947 10.7321 17.444 11.231 16.9119 11.5411C16.9119 11.5411 16.3388 11.875 15.625 11.875C15.625 11.875 14.9112 11.875 14.3381 11.5411C14.3381 11.5411 13.806 11.231 13.7553 10.7321Z" fill="#666666"/>
</svg>
