<svg width="12" height="12" viewBox="0 0 12 12" fill="none" xmlns="http://www.w3.org/2000/svg">
<path fill-rule="evenodd" clip-rule="evenodd" d="M5.4375 1.125C5.4375 1.125 6.31463 1.125 7.11623 1.46405C7.11623 1.46405 7.89021 1.79142 8.4869 2.3881C8.4869 2.3881 9.08358 2.98479 9.41095 3.75877C9.41095 3.75877 9.75 4.56037 9.75 5.4375C9.75 5.4375 9.75 6.31463 9.41095 7.11624C9.41095 7.11624 9.08359 7.89021 8.4869 8.4869C8.4869 8.4869 7.89021 9.08359 7.11623 9.41095C7.11623 9.41095 6.31463 9.75 5.4375 9.75C5.4375 9.75 4.56037 9.75 3.75877 9.41095C3.75877 9.41095 2.98479 9.08358 2.3881 8.4869C2.3881 8.4869 1.79142 7.89021 1.46405 7.11624C1.46405 7.11624 1.125 6.31463 1.125 5.4375C1.125 5.4375 1.125 4.56037 1.46405 3.75877C1.46405 3.75877 1.79142 2.98479 2.3881 2.3881C2.3881 2.3881 2.98479 1.79142 3.75877 1.46405C3.75877 1.46405 4.56037 1.125 5.4375 1.125ZM5.4375 1.875C5.4375 1.875 4.71246 1.875 4.05093 2.15481C4.05093 2.15481 3.41168 2.42519 2.91843 2.91843C2.91843 2.91843 2.42518 3.41168 2.1548 4.05093C2.1548 4.05093 1.875 4.71246 1.875 5.4375C1.875 5.4375 1.875 6.16254 2.1548 6.82407C2.1548 6.82407 2.42518 7.46332 2.91843 7.95657C2.91843 7.95657 3.41168 8.44982 4.05093 8.7202C4.05093 8.7202 4.71246 9 5.4375 9C5.4375 9 6.16254 9 6.82407 8.7202C6.82407 8.7202 7.46332 8.44982 7.95657 7.95657C7.95657 7.95657 8.44982 7.46332 8.7202 6.82407C8.7202 6.82407 9 6.16254 9 5.4375C9 5.4375 9 4.71246 8.7202 4.05093C8.7202 4.05093 8.44982 3.41168 7.95657 2.91843C7.95657 2.91843 7.46332 2.42518 6.82407 2.15481C6.82407 2.15481 6.16254 1.875 5.4375 1.875Z" fill="#666666"/>
<path d="M10.2347 10.765C10.305 10.8353 10.4006 10.875 10.5 10.875C10.5995 10.875 10.6949 10.8355 10.7652 10.7652C10.8355 10.6949 10.875 10.5995 10.875 10.5C10.875 10.4006 10.8355 10.3052 10.7652 10.2349L8.4871 7.95677C8.41673 7.8864 8.32135 7.84689 8.22189 7.84689C8.12244 7.84689 8.02689 7.88624 7.95657 7.95657C7.88624 8.02689 7.84689 8.12244 7.84689 8.22189C7.84689 8.32135 7.8864 8.41673 7.95673 8.48706L10.2347 10.765Z" fill="#666666"/>
</svg>
