<svg width="12" height="12" viewBox="0 0 12 12" fill="none" xmlns="http://www.w3.org/2000/svg">
<path d="M5.625 1.5V3C5.625 3.20711 5.79289 3.375 6 3.375C6.20711 3.375 6.375 3.20711 6.375 3V1.5C6.375 1.29289 6.20711 1.125 6 1.125C5.79289 1.125 5.625 1.29289 5.625 1.5Z" fill="#666666"/>
<path d="M10.5 5.625H9C8.79289 5.625 8.625 5.79289 8.625 6C8.625 6.20711 8.79289 6.375 9 6.375H10.5C10.7071 6.375 10.875 6.20711 10.875 6C10.875 5.79289 10.7071 5.625 10.5 5.625Z" fill="#666666"/>
<path d="M8.38859 7.85831C8.31827 7.78798 8.22288 7.74847 8.12343 7.74847C8.02397 7.74847 7.92859 7.78798 7.85826 7.85831C7.78794 7.92864 7.74843 8.02402 7.74843 8.12347C7.74843 8.22293 7.78794 8.31831 7.85826 8.38864L8.91764 9.44801C8.98796 9.51834 9.08335 9.55785 9.1828 9.55785C9.28226 9.55785 9.37764 9.51834 9.44797 9.44801C9.51829 9.37769 9.5578 9.2823 9.5578 9.18285C9.5578 9.08339 9.51829 8.98801 9.44797 8.91768L8.38859 7.85831Z" fill="#666666"/>
<path d="M6.375 10.5V9C6.375 8.79289 6.20711 8.625 6 8.625C5.79289 8.625 5.625 8.79289 5.625 9V10.5C5.625 10.7071 5.79289 10.875 6 10.875C6.20711 10.875 6.375 10.7071 6.375 10.5Z" fill="#666666"/>
<path d="M4.14171 8.38864C4.21204 8.31831 4.25154 8.22293 4.25154 8.12347C4.25154 8.02402 4.21204 7.92864 4.14171 7.85831C4.07138 7.78798 3.976 7.74847 3.87654 7.74847C3.77709 7.74847 3.68171 7.78798 3.61138 7.85831L2.55209 8.91759C2.48168 8.98801 2.44217 9.08339 2.44217 9.18285C2.44217 9.18886 2.44231 9.19486 2.4426 9.20086C2.44708 9.29398 2.48608 9.38209 2.552 9.44801C2.62233 9.51834 2.71771 9.55785 2.81717 9.55785C2.91663 9.55785 3.01201 9.51834 3.08233 9.44801L4.14171 8.38864Z" fill="#666666"/>
<path d="M1.5 6.375H3C3.20711 6.375 3.375 6.20711 3.375 6C3.375 5.79289 3.20711 5.625 3 5.625H1.5C1.29289 5.625 1.125 5.79289 1.125 6C1.125 6.20711 1.29289 6.375 1.5 6.375Z" fill="#666666"/>
<path d="M2.55205 3.08238L3.61138 4.14171C3.68171 4.21204 3.77709 4.25154 3.87654 4.25154C3.976 4.25154 4.07138 4.21204 4.14171 4.14171C4.21204 4.07138 4.25154 3.976 4.25154 3.87654C4.25154 3.77709 4.21204 3.68171 4.14171 3.61138L3.08238 2.55205C3.01201 2.48168 2.91663 2.44217 2.81717 2.44217C2.71771 2.44217 2.62233 2.48168 2.552 2.552C2.48168 2.62233 2.44217 2.71771 2.44217 2.81717C2.44217 2.91663 2.48168 3.01201 2.55205 3.08238Z" fill="#666666"/>
</svg>
