<svg width="96" height="24" viewBox="0 0 96 24" fill="none" xmlns="http://www.w3.org/2000/svg">
<rect width="96" height="24" rx="4" fill="#0074A3" fill-opacity="0.7"/>
<path d="M16.288 7.66V8.776H14.068V16H12.7V8.776H10.468V7.66H16.288ZM23.7334 12.532C23.7334 12.78 23.7174 13.004 23.6854 13.204H18.6334C18.6734 13.732 18.8694 14.156 19.2214 14.476C19.5734 14.796 20.0054 14.956 20.5174 14.956C21.2534 14.956 21.7734 14.648 22.0774 14.032H23.5534C23.3534 14.64 22.9894 15.14 22.4614 15.532C21.9414 15.916 21.2934 16.108 20.5174 16.108C19.8854 16.108 19.3174 15.968 18.8134 15.688C18.3174 15.4 17.9254 15 17.6374 14.488C17.3574 13.968 17.2174 13.368 17.2174 12.688C17.2174 12.008 17.3534 11.412 17.6254 10.9C17.9054 10.38 18.2934 9.98 18.7894 9.7C19.2934 9.42 19.8694 9.28 20.5174 9.28C21.1414 9.28 21.6974 9.416 22.1854 9.688C22.6734 9.96 23.0534 10.344 23.3254 10.84C23.5974 11.328 23.7334 11.892 23.7334 12.532ZM22.3054 12.1C22.2974 11.596 22.1174 11.192 21.7654 10.888C21.4134 10.584 20.9774 10.432 20.4574 10.432C19.9854 10.432 19.5814 10.584 19.2454 10.888C18.9094 11.184 18.7094 11.588 18.6454 12.1H22.3054ZM33.0837 9.28C33.6037 9.28 34.0677 9.388 34.4757 9.604C34.8917 9.82 35.2157 10.14 35.4477 10.564C35.6877 10.988 35.8077 11.5 35.8077 12.1V16H34.4517V12.304C34.4517 11.712 34.3037 11.26 34.0077 10.948C33.7117 10.628 33.3077 10.468 32.7957 10.468C32.2837 10.468 31.8757 10.628 31.5717 10.948C31.2757 11.26 31.1277 11.712 31.1277 12.304V16H29.7717V12.304C29.7717 11.712 29.6237 11.26 29.3277 10.948C29.0317 10.628 28.6277 10.468 28.1157 10.468C27.6037 10.468 27.1957 10.628 26.8917 10.948C26.5957 11.26 26.4477 11.712 26.4477 12.304V16H25.0797V9.388H26.4477V10.144C26.6717 9.872 26.9557 9.66 27.2997 9.508C27.6437 9.356 28.0117 9.28 28.4037 9.28C28.9317 9.28 29.4037 9.392 29.8197 9.616C30.2357 9.84 30.5557 10.164 30.7797 10.588C30.9797 10.188 31.2917 9.872 31.7157 9.64C32.1397 9.4 32.5957 9.28 33.0837 9.28ZM38.9164 10.36C39.1484 10.056 39.4644 9.8 39.8644 9.592C40.2644 9.384 40.7164 9.28 41.2204 9.28C41.7964 9.28 42.3204 9.424 42.7924 9.712C43.2724 9.992 43.6484 10.388 43.9204 10.9C44.1924 11.412 44.3284 12 44.3284 12.664C44.3284 13.328 44.1924 13.924 43.9204 14.452C43.6484 14.972 43.2724 15.38 42.7924 15.676C42.3204 15.964 41.7964 16.108 41.2204 16.108C40.7164 16.108 40.2684 16.008 39.8764 15.808C39.4844 15.6 39.1644 15.344 38.9164 15.04V19.144H37.5484V9.388H38.9164V10.36ZM42.9364 12.664C42.9364 12.208 42.8404 11.816 42.6484 11.488C42.4644 11.152 42.2164 10.9 41.9044 10.732C41.6004 10.556 41.2724 10.468 40.9204 10.468C40.5764 10.468 40.2484 10.556 39.9364 10.732C39.6324 10.908 39.3844 11.164 39.1924 11.5C39.0084 11.836 38.9164 12.232 38.9164 12.688C38.9164 13.144 39.0084 13.544 39.1924 13.888C39.3844 14.224 39.6324 14.48 39.9364 14.656C40.2484 14.832 40.5764 14.92 40.9204 14.92C41.2724 14.92 41.6004 14.832 41.9044 14.656C42.2164 14.472 42.4644 14.208 42.6484 13.864C42.8404 13.52 42.9364 13.12 42.9364 12.664ZM47.0493 7.12V16H45.6813V7.12H47.0493ZM48.3893 12.664C48.3893 12 48.5253 11.412 48.7973 10.9C49.0773 10.388 49.4533 9.992 49.9253 9.712C50.4053 9.424 50.9333 9.28 51.5093 9.28C52.0293 9.28 52.4813 9.384 52.8653 9.592C53.2573 9.792 53.5693 10.044 53.8013 10.348V9.388H55.1813V16H53.8013V15.016C53.5693 15.328 53.2533 15.588 52.8533 15.796C52.4533 16.004 51.9973 16.108 51.4853 16.108C50.9173 16.108 50.3973 15.964 49.9253 15.676C49.4533 15.38 49.0773 14.972 48.7973 14.452C48.5253 13.924 48.3893 13.328 48.3893 12.664ZM53.8013 12.688C53.8013 12.232 53.7053 11.836 53.5133 11.5C53.3293 11.164 53.0853 10.908 52.7813 10.732C52.4773 10.556 52.1493 10.468 51.7973 10.468C51.4453 10.468 51.1173 10.556 50.8133 10.732C50.5093 10.9 50.2613 11.152 50.0693 11.488C49.8853 11.816 49.7933 12.208 49.7933 12.664C49.7933 13.12 49.8853 13.52 50.0693 13.864C50.2613 14.208 50.5093 14.472 50.8133 14.656C51.1253 14.832 51.4533 14.92 51.7973 14.92C52.1493 14.92 52.4773 14.832 52.7813 14.656C53.0853 14.48 53.3293 14.224 53.5133 13.888C53.7053 13.544 53.8013 13.144 53.8013 12.688ZM58.5741 10.504V14.164C58.5741 14.412 58.6301 14.592 58.7421 14.704C58.8621 14.808 59.0621 14.86 59.3421 14.86H60.1821V16H59.1021C58.4861 16 58.0141 15.856 57.6861 15.568C57.3581 15.28 57.1941 14.812 57.1941 14.164V10.504H56.4141V9.388H57.1941V7.744H58.5741V9.388H60.1821V10.504H58.5741ZM67.503 12.532C67.503 12.78 67.487 13.004 67.455 13.204H62.403C62.443 13.732 62.639 14.156 62.991 14.476C63.343 14.796 63.775 14.956 64.287 14.956C65.023 14.956 65.543 14.648 65.847 14.032H67.323C67.123 14.64 66.759 15.14 66.231 15.532C65.711 15.916 65.063 16.108 64.287 16.108C63.655 16.108 63.087 15.968 62.583 15.688C62.087 15.4 61.695 15 61.407 14.488C61.127 13.968 60.987 13.368 60.987 12.688C60.987 12.008 61.123 11.412 61.395 10.9C61.675 10.38 62.063 9.98 62.559 9.7C63.063 9.42 63.639 9.28 64.287 9.28C64.911 9.28 65.467 9.416 65.955 9.688C66.443 9.96 66.823 10.344 67.095 10.84C67.367 11.328 67.503 11.892 67.503 12.532ZM66.075 12.1C66.067 11.596 65.887 11.192 65.535 10.888C65.183 10.584 64.747 10.432 64.227 10.432C63.755 10.432 63.351 10.584 63.015 10.888C62.679 11.184 62.479 11.588 62.415 12.1H66.075Z" fill="white"/>
<path d="M81.6061 11.3251L81.6062 11.325C81.6883 11.2429 81.7344 11.1317 81.7344 11.0156C81.7344 10.8996 81.6883 10.7883 81.6062 10.7063C81.5242 10.6242 81.4129 10.5781 81.2969 10.5781C81.1808 10.5781 81.0696 10.6242 80.9875 10.7063L80.9874 10.7064L79 12.6938L77.0125 10.7063C76.9304 10.6242 76.8192 10.5781 76.7031 10.5781C76.5871 10.5781 76.4758 10.6242 76.3938 10.7063C76.3117 10.7883 76.2656 10.8996 76.2656 11.0156C76.2656 11.1317 76.3117 11.2429 76.3938 11.325L78.6906 13.6219C78.7727 13.7039 78.884 13.75 79 13.75C79.116 13.75 79.2273 13.7039 79.3094 13.6219L81.6061 11.3251Z" fill="white"/>
<path d="M78.5625 7.1875V13.3125C78.5625 13.5541 78.7584 13.75 79 13.75C79.2416 13.75 79.4375 13.5541 79.4375 13.3125V7.1875C79.4375 6.94588 79.2416 6.75 79 6.75C78.7584 6.75 78.5625 6.94588 78.5625 7.1875Z" fill="white"/>
<path d="M74.625 16.375V13.3125C74.625 13.0709 74.4291 12.875 74.1875 12.875C73.9459 12.875 73.75 13.0709 73.75 13.3125V16.375C73.75 16.7374 74.0063 16.9937 74.0063 16.9937C74.2626 17.25 74.625 17.25 74.625 17.25H83.375C83.7374 17.25 83.9937 16.9937 83.9937 16.9937C84.25 16.7374 84.25 16.375 84.25 16.375V13.3125C84.25 13.0709 84.0541 12.875 83.8125 12.875C83.5709 12.875 83.375 13.0709 83.375 13.3125V16.375H74.625Z" fill="white"/>
</svg>
