<svg width="14" height="14" viewBox="0 0 14 14" fill="none" xmlns="http://www.w3.org/2000/svg">
<path d="M8.98729 4.79351C9.06934 4.87556 9.18084 4.92188 9.29688 4.92188C9.41291 4.92187 9.52419 4.87578 9.60623 4.79373C9.68828 4.71169 9.73438 4.60041 9.73438 4.48438C9.73438 4.36834 9.68828 4.25706 9.60623 4.17502L7.30936 1.87814C7.22731 1.79609 7.11603 1.75 7 1.75C6.88397 1.75 6.77269 1.79609 6.69064 1.87814L4.39393 4.17485C4.31188 4.2569 4.26562 4.36834 4.26562 4.48438C4.26562 4.49138 4.26579 4.49839 4.26613 4.50539C4.27135 4.61403 4.31686 4.71683 4.39377 4.79373C4.47581 4.87578 4.58709 4.92188 4.70312 4.92188C4.81916 4.92187 4.93044 4.87578 5.01248 4.79373L7 2.80622L8.98729 4.79351Z" fill="black" fill-opacity="0.3"/>
<path d="M7.4375 8.3125V2.1875C7.4375 1.94588 7.24162 1.75 7 1.75C6.75838 1.75 6.5625 1.94588 6.5625 2.1875V8.3125C6.5625 8.55412 6.75838 8.75 7 8.75C7.24162 8.75 7.4375 8.55412 7.4375 8.3125Z" fill="black" fill-opacity="0.3"/>
<path d="M2.625 11.375V8.3125C2.625 8.07088 2.42912 7.875 2.1875 7.875C1.94588 7.875 1.75 8.07088 1.75 8.3125V11.375C1.75 11.7374 2.00628 11.9937 2.00628 11.9937C2.26256 12.25 2.625 12.25 2.625 12.25H11.375C11.7374 12.25 11.9937 11.9937 11.9937 11.9937C12.25 11.7374 12.25 11.375 12.25 11.375V8.3125C12.25 8.07088 12.0541 7.875 11.8125 7.875C11.5709 7.875 11.375 8.07088 11.375 8.3125V11.375H2.625Z" fill="black" fill-opacity="0.3"/>
</svg>
