<svg width="118" height="24" viewBox="0 0 118 24" fill="none" xmlns="http://www.w3.org/2000/svg">
<rect width="118" height="24" rx="4" fill="#00A65A" fill-opacity="0.7"/>
<path d="M12.256 7.66V12.976C12.256 13.608 12.42 14.084 12.748 14.404C13.084 14.724 13.548 14.884 14.14 14.884C14.74 14.884 15.204 14.724 15.532 14.404C15.868 14.084 16.036 13.608 16.036 12.976V7.66H17.404V12.952C17.404 13.632 17.256 14.208 16.96 14.68C16.664 15.152 16.268 15.504 15.772 15.736C15.276 15.968 14.728 16.084 14.128 16.084C13.528 16.084 12.98 15.968 12.484 15.736C11.996 15.504 11.608 15.152 11.32 14.68C11.032 14.208 10.888 13.632 10.888 12.952V7.66H12.256ZM20.5532 10.36C20.7852 10.056 21.1012 9.8 21.5012 9.592C21.9012 9.384 22.3532 9.28 22.8572 9.28C23.4332 9.28 23.9572 9.424 24.4292 9.712C24.9092 9.992 25.2852 10.388 25.5572 10.9C25.8292 11.412 25.9652 12 25.9652 12.664C25.9652 13.328 25.8292 13.924 25.5572 14.452C25.2852 14.972 24.9092 15.38 24.4292 15.676C23.9572 15.964 23.4332 16.108 22.8572 16.108C22.3532 16.108 21.9052 16.008 21.5132 15.808C21.1212 15.6 20.8012 15.344 20.5532 15.04V19.144H19.1852V9.388H20.5532V10.36ZM24.5732 12.664C24.5732 12.208 24.4772 11.816 24.2852 11.488C24.1012 11.152 23.8532 10.9 23.5412 10.732C23.2372 10.556 22.9092 10.468 22.5572 10.468C22.2132 10.468 21.8852 10.556 21.5732 10.732C21.2692 10.908 21.0212 11.164 20.8292 11.5C20.6452 11.836 20.5532 12.232 20.5532 12.688C20.5532 13.144 20.6452 13.544 20.8292 13.888C21.0212 14.224 21.2692 14.48 21.5732 14.656C21.8852 14.832 22.2132 14.92 22.5572 14.92C22.9092 14.92 23.2372 14.832 23.5412 14.656C23.8532 14.472 24.1012 14.208 24.2852 13.864C24.4772 13.52 24.5732 13.12 24.5732 12.664ZM28.686 7.12V16H27.318V7.12H28.686ZM33.35 16.108C32.726 16.108 32.162 15.968 31.658 15.688C31.154 15.4 30.758 15 30.47 14.488C30.182 13.968 30.038 13.368 30.038 12.688C30.038 12.016 30.186 11.42 30.482 10.9C30.778 10.38 31.182 9.98 31.694 9.7C32.206 9.42 32.778 9.28 33.41 9.28C34.042 9.28 34.614 9.42 35.126 9.7C35.638 9.98 36.042 10.38 36.338 10.9C36.634 11.42 36.782 12.016 36.782 12.688C36.782 13.36 36.63 13.956 36.326 14.476C36.022 14.996 35.606 15.4 35.078 15.688C34.558 15.968 33.982 16.108 33.35 16.108ZM33.35 14.92C33.702 14.92 34.03 14.836 34.334 14.668C34.646 14.5 34.898 14.248 35.09 13.912C35.282 13.576 35.378 13.168 35.378 12.688C35.378 12.208 35.286 11.804 35.102 11.476C34.918 11.14 34.674 10.888 34.37 10.72C34.066 10.552 33.738 10.468 33.386 10.468C33.034 10.468 32.706 10.552 32.402 10.72C32.106 10.888 31.87 11.14 31.694 11.476C31.518 11.804 31.43 12.208 31.43 12.688C31.43 13.4 31.61 13.952 31.97 14.344C32.338 14.728 32.798 14.92 33.35 14.92ZM37.6784 12.664C37.6784 12 37.8144 11.412 38.0864 10.9C38.3664 10.388 38.7424 9.992 39.2144 9.712C39.6944 9.424 40.2224 9.28 40.7984 9.28C41.3184 9.28 41.7704 9.384 42.1544 9.592C42.5464 9.792 42.8584 10.044 43.0904 10.348V9.388H44.4704V16H43.0904V15.016C42.8584 15.328 42.5424 15.588 42.1424 15.796C41.7424 16.004 41.2864 16.108 40.7744 16.108C40.2064 16.108 39.6864 15.964 39.2144 15.676C38.7424 15.38 38.3664 14.972 38.0864 14.452C37.8144 13.924 37.6784 13.328 37.6784 12.664ZM43.0904 12.688C43.0904 12.232 42.9944 11.836 42.8024 11.5C42.6184 11.164 42.3744 10.908 42.0704 10.732C41.7664 10.556 41.4384 10.468 41.0864 10.468C40.7344 10.468 40.4064 10.556 40.1024 10.732C39.7984 10.9 39.5504 11.152 39.3584 11.488C39.1744 11.816 39.0824 12.208 39.0824 12.664C39.0824 13.12 39.1744 13.52 39.3584 13.864C39.5504 14.208 39.7984 14.472 40.1024 14.656C40.4144 14.832 40.7424 14.92 41.0864 14.92C41.4384 14.92 41.7664 14.832 42.0704 14.656C42.3744 14.48 42.6184 14.224 42.8024 13.888C42.9944 13.544 43.0904 13.144 43.0904 12.688ZM45.8112 12.664C45.8112 12 45.9472 11.412 46.2192 10.9C46.4992 10.388 46.8752 9.992 47.3472 9.712C47.8272 9.424 48.3592 9.28 48.9432 9.28C49.3752 9.28 49.7992 9.376 50.2152 9.568C50.6392 9.752 50.9752 10 51.2232 10.312V7.12H52.6032V16H51.2232V15.004C50.9992 15.324 50.6872 15.588 50.2872 15.796C49.8952 16.004 49.4432 16.108 48.9312 16.108C48.3552 16.108 47.8272 15.964 47.3472 15.676C46.8752 15.38 46.4992 14.972 46.2192 14.452C45.9472 13.924 45.8112 13.328 45.8112 12.664ZM51.2232 12.688C51.2232 12.232 51.1272 11.836 50.9352 11.5C50.7512 11.164 50.5072 10.908 50.2032 10.732C49.8992 10.556 49.5712 10.468 49.2192 10.468C48.8672 10.468 48.5392 10.556 48.2352 10.732C47.9312 10.9 47.6832 11.152 47.4912 11.488C47.3072 11.816 47.2152 12.208 47.2152 12.664C47.2152 13.12 47.3072 13.52 47.4912 13.864C47.6832 14.208 47.9312 14.472 48.2352 14.656C48.5472 14.832 48.8752 14.92 49.2192 14.92C49.5712 14.92 49.8992 14.832 50.2032 14.656C50.5072 14.48 50.7512 14.224 50.9352 13.888C51.1272 13.544 51.2232 13.144 51.2232 12.688ZM60.3852 16.108C59.7612 16.108 59.1972 15.968 58.6932 15.688C58.1892 15.4 57.7932 15 57.5052 14.488C57.2172 13.968 57.0732 13.368 57.0732 12.688C57.0732 12.016 57.2212 11.42 57.5172 10.9C57.8132 10.38 58.2172 9.98 58.7292 9.7C59.2412 9.42 59.8132 9.28 60.4452 9.28C61.0772 9.28 61.6492 9.42 62.1612 9.7C62.6732 9.98 63.0772 10.38 63.3732 10.9C63.6692 11.42 63.8172 12.016 63.8172 12.688C63.8172 13.36 63.6652 13.956 63.3612 14.476C63.0572 14.996 62.6412 15.4 62.1132 15.688C61.5932 15.968 61.0172 16.108 60.3852 16.108ZM60.3852 14.92C60.7372 14.92 61.0652 14.836 61.3692 14.668C61.6812 14.5 61.9332 14.248 62.1252 13.912C62.3172 13.576 62.4132 13.168 62.4132 12.688C62.4132 12.208 62.3212 11.804 62.1372 11.476C61.9532 11.14 61.7092 10.888 61.4052 10.72C61.1012 10.552 60.7732 10.468 60.4212 10.468C60.0692 10.468 59.7412 10.552 59.4372 10.72C59.1412 10.888 58.9052 11.14 58.7292 11.476C58.5532 11.804 58.4652 12.208 58.4652 12.688C58.4652 13.4 58.6452 13.952 59.0052 14.344C59.3732 14.728 59.8332 14.92 60.3852 14.92ZM66.5375 10.348C66.7375 10.012 67.0015 9.752 67.3295 9.568C67.6655 9.376 68.0615 9.28 68.5175 9.28V10.696H68.1695C67.6335 10.696 67.2255 10.832 66.9455 11.104C66.6735 11.376 66.5375 11.848 66.5375 12.52V16H65.1695V9.388H66.5375V10.348ZM69.319 12.664C69.319 12 69.455 11.412 69.727 10.9C70.007 10.388 70.383 9.992 70.855 9.712C71.335 9.424 71.867 9.28 72.451 9.28C72.883 9.28 73.307 9.376 73.723 9.568C74.147 9.752 74.483 10 74.731 10.312V7.12H76.111V16H74.731V15.004C74.507 15.324 74.195 15.588 73.795 15.796C73.403 16.004 72.951 16.108 72.439 16.108C71.863 16.108 71.335 15.964 70.855 15.676C70.383 15.38 70.007 14.972 69.727 14.452C69.455 13.924 69.319 13.328 69.319 12.664ZM74.731 12.688C74.731 12.232 74.635 11.836 74.443 11.5C74.259 11.164 74.015 10.908 73.711 10.732C73.407 10.556 73.079 10.468 72.727 10.468C72.375 10.468 72.047 10.556 71.743 10.732C71.439 10.9 71.191 11.152 70.999 11.488C70.815 11.816 70.723 12.208 70.723 12.664C70.723 13.12 70.815 13.52 70.999 13.864C71.191 14.208 71.439 14.472 71.743 14.656C72.055 14.832 72.383 14.92 72.727 14.92C73.079 14.92 73.407 14.832 73.711 14.656C74.015 14.48 74.259 14.224 74.443 13.888C74.635 13.544 74.731 13.144 74.731 12.688ZM83.9678 12.532C83.9678 12.78 83.9518 13.004 83.9198 13.204H78.8678C78.9078 13.732 79.1038 14.156 79.4558 14.476C79.8078 14.796 80.2398 14.956 80.7518 14.956C81.4878 14.956 82.0078 14.648 82.3118 14.032H83.7878C83.5878 14.64 83.2238 15.14 82.6958 15.532C82.1758 15.916 81.5278 16.108 80.7518 16.108C80.1198 16.108 79.5518 15.968 79.0478 15.688C78.5518 15.4 78.1598 15 77.8718 14.488C77.5918 13.968 77.4518 13.368 77.4518 12.688C77.4518 12.008 77.5878 11.412 77.8598 10.9C78.1398 10.38 78.5278 9.98 79.0238 9.7C79.5278 9.42 80.1038 9.28 80.7518 9.28C81.3758 9.28 81.9318 9.416 82.4198 9.688C82.9078 9.96 83.2878 10.344 83.5598 10.84C83.8318 11.328 83.9678 11.892 83.9678 12.532ZM82.5398 12.1C82.5318 11.596 82.3518 11.192 81.9998 10.888C81.6478 10.584 81.2118 10.432 80.6918 10.432C80.2198 10.432 79.8158 10.584 79.4798 10.888C79.1438 11.184 78.9438 11.588 78.8798 12.1H82.5398ZM86.6821 10.348C86.8821 10.012 87.1461 9.752 87.4741 9.568C87.8101 9.376 88.2061 9.28 88.6621 9.28V10.696H88.3141C87.7781 10.696 87.3701 10.832 87.0901 11.104C86.8181 11.376 86.6821 11.848 86.6821 12.52V16H85.3141V9.388H86.6821V10.348Z" fill="white"/>
<path d="M102.987 9.79351C103.069 9.87556 103.181 9.92188 103.297 9.92188C103.413 9.92187 103.524 9.87578 103.606 9.79373C103.688 9.71169 103.734 9.60041 103.734 9.48438C103.734 9.36834 103.688 9.25706 103.606 9.17502L101.309 6.87814C101.227 6.79609 101.116 6.75 101 6.75C100.884 6.75 100.773 6.79609 100.691 6.87814L98.3939 9.17485C98.3119 9.2569 98.2656 9.36834 98.2656 9.48438C98.2656 9.49138 98.2658 9.49839 98.2661 9.50539C98.2714 9.61403 98.3169 9.71683 98.3938 9.79373C98.4758 9.87578 98.5871 9.92188 98.7031 9.92188C98.8192 9.92187 98.9304 9.87578 99.0125 9.79373L101 7.80622L102.987 9.79351Z" fill="white"/>
<path d="M101.438 13.3125V7.1875C101.438 6.94588 101.242 6.75 101 6.75C100.758 6.75 100.562 6.94588 100.562 7.1875V13.3125C100.562 13.5541 100.758 13.75 101 13.75C101.242 13.75 101.438 13.5541 101.438 13.3125Z" fill="white"/>
<path d="M96.625 16.375V13.3125C96.625 13.0709 96.4291 12.875 96.1875 12.875C95.9459 12.875 95.75 13.0709 95.75 13.3125V16.375C95.75 16.7374 96.0063 16.9937 96.0063 16.9937C96.2626 17.25 96.625 17.25 96.625 17.25H105.375C105.737 17.25 105.994 16.9937 105.994 16.9937C106.25 16.7374 106.25 16.375 106.25 16.375V13.3125C106.25 13.0709 106.054 12.875 105.812 12.875C105.571 12.875 105.375 13.0709 105.375 13.3125V16.375H96.625Z" fill="white"/>
</svg>
