<svg width="60" height="60" viewBox="0 0 60 60" fill="none" xmlns="http://www.w3.org/2000/svg">
<path d="M55.4765 44.0629L34.875 8.4379C34.3818 7.5811 33.6714 6.86941 32.8156 6.37455C31.9597 5.8797 30.9886 5.61914 30 5.61914C29.0113 5.61914 28.0402 5.8797 27.1843 6.37455C26.3285 6.86941 25.6182 7.5811 25.125 8.4379L4.5234 44.0629C4.02293 44.9154 3.75696 45.8851 3.7525 46.8736C3.74803 47.8621 4.00523 48.8341 4.49797 49.6911C4.99072 50.548 5.70146 51.2593 6.55802 51.7527C7.41458 52.2461 8.38646 52.5041 9.37496 52.5004H50.625C51.6135 52.5041 52.5853 52.2461 53.4419 51.7527C54.2985 51.2593 55.0092 50.548 55.502 49.6911C55.9947 48.8341 56.2519 47.8621 56.2474 46.8736C56.243 45.8851 55.977 44.9154 55.4765 44.0629ZM28.125 24.3754C28.125 23.8781 28.3225 23.4012 28.6741 23.0496C29.0258 22.6979 29.5027 22.5004 30 22.5004C30.4972 22.5004 30.9742 22.6979 31.3258 23.0496C31.6774 23.4012 31.875 23.8781 31.875 24.3754V33.7504C31.875 34.2477 31.6774 34.7246 31.3258 35.0762C30.9742 35.4279 30.4972 35.6254 30 35.6254C29.5027 35.6254 29.0258 35.4279 28.6741 35.0762C28.3225 34.7246 28.125 34.2477 28.125 33.7504V24.3754ZM30 45.0004C29.4437 45.0004 28.8999 44.8354 28.4374 44.5264C27.9749 44.2174 27.6144 43.7781 27.4016 43.2642C27.1887 42.7503 27.133 42.1848 27.2415 41.6392C27.35 41.0936 27.6179 40.5925 28.0112 40.1992C28.4046 39.8058 28.9057 39.538 29.4513 39.4294C29.9968 39.3209 30.5623 39.3766 31.0763 39.5895C31.5902 39.8024 32.0294 40.1628 32.3385 40.6254C32.6475 41.0879 32.8125 41.6316 32.8125 42.1879C32.8125 42.9338 32.5161 43.6492 31.9887 44.1766C31.4613 44.7041 30.7459 45.0004 30 45.0004Z" fill="#E14101"/>
</svg>
