<svg width="836" height="156" viewBox="0 0 836 156" fill="none" xmlns="http://www.w3.org/2000/svg">
<g filter="url(#filter0_d_923_338)">
<g clip-path="url(#clip0_923_338)">
<rect x="8" y="3" width="820" height="140" rx="10" fill="#0074A3" fill-opacity="0.7" shape-rendering="crispEdges"/>
<path d="M109.584 -16.856L86.16 73H59.664L45.328 13.864L30.48 73H3.984L-18.8 -16.856H4.624L17.552 48.552L33.552 -16.856H57.616L72.976 48.552L86.032 -16.856H109.584ZM142.449 -16.856V73H120.561V-16.856H142.449ZM190.823 73.896C184.252 73.896 178.364 72.8293 173.159 70.696C167.954 68.5627 163.772 65.4053 160.615 61.224C157.543 57.0427 155.922 52.008 155.751 46.12H179.047C179.388 49.448 180.54 52.008 182.503 53.8C184.466 55.5067 187.026 56.36 190.183 56.36C193.426 56.36 195.986 55.6347 197.863 54.184C199.74 52.648 200.679 50.5573 200.679 47.912C200.679 45.6933 199.911 43.8587 198.375 42.408C196.924 40.9573 195.09 39.7627 192.871 38.824C190.738 37.8853 187.666 36.8187 183.655 35.624C177.852 33.832 173.116 32.04 169.447 30.248C165.778 28.456 162.62 25.8107 159.975 22.312C157.33 18.8133 156.007 14.248 156.007 8.616C156.007 0.253332 159.036 -6.27467 165.095 -10.968C171.154 -15.7467 179.047 -18.136 188.775 -18.136C198.674 -18.136 206.652 -15.7467 212.711 -10.968C218.77 -6.27467 222.012 0.295998 222.439 8.744H198.759C198.588 5.84266 197.522 3.58133 195.559 1.96C193.596 0.253329 191.079 -0.600006 188.007 -0.600006C185.362 -0.600006 183.228 0.125328 181.607 1.576C179.986 2.94133 179.175 4.94666 179.175 7.592C179.175 10.4933 180.54 12.7547 183.271 14.376C186.002 15.9973 190.268 17.7467 196.071 19.624C201.874 21.5867 206.567 23.464 210.151 25.256C213.82 27.048 216.978 29.6507 219.623 33.064C222.268 36.4773 223.591 40.872 223.591 46.248C223.591 51.368 222.268 56.0187 219.623 60.2C217.063 64.3813 213.308 67.7093 208.359 70.184C203.41 72.6587 197.564 73.896 190.823 73.896ZM314.885 -16.856V73H292.997V36.008H258.949V73H237.061V-16.856H258.949V18.344H292.997V-16.856H314.885ZM352.574 56.104H381.246V73H330.686V-16.856H352.574V56.104ZM413.574 -16.856V73H391.686V-16.856H413.574ZM461.948 73.896C455.377 73.896 449.489 72.8293 444.284 70.696C439.079 68.5627 434.897 65.4053 431.74 61.224C428.668 57.0427 427.047 52.008 426.876 46.12H450.172C450.513 49.448 451.665 52.008 453.628 53.8C455.591 55.5067 458.151 56.36 461.308 56.36C464.551 56.36 467.111 55.6347 468.988 54.184C470.865 52.648 471.804 50.5573 471.804 47.912C471.804 45.6933 471.036 43.8587 469.5 42.408C468.049 40.9573 466.215 39.7627 463.996 38.824C461.863 37.8853 458.791 36.8187 454.78 35.624C448.977 33.832 444.241 32.04 440.572 30.248C436.903 28.456 433.745 25.8107 431.1 22.312C428.455 18.8133 427.132 14.248 427.132 8.616C427.132 0.253332 430.161 -6.27467 436.22 -10.968C442.279 -15.7467 450.172 -18.136 459.9 -18.136C469.799 -18.136 477.777 -15.7467 483.836 -10.968C489.895 -6.27467 493.137 0.295998 493.564 8.744H469.884C469.713 5.84266 468.647 3.58133 466.684 1.96C464.721 0.253329 462.204 -0.600006 459.132 -0.600006C456.487 -0.600006 454.353 0.125328 452.732 1.576C451.111 2.94133 450.3 4.94666 450.3 7.592C450.3 10.4933 451.665 12.7547 454.396 14.376C457.127 15.9973 461.393 17.7467 467.196 19.624C472.999 21.5867 477.692 23.464 481.276 25.256C484.945 27.048 488.103 29.6507 490.748 33.064C493.393 36.4773 494.716 40.872 494.716 46.248C494.716 51.368 493.393 56.0187 490.748 60.2C488.188 64.3813 484.433 67.7093 479.484 70.184C474.535 72.6587 468.689 73.896 461.948 73.896ZM572.826 -16.856V0.68H549.018V73H527.13V0.68H503.322V-16.856H572.826Z" fill="white" fill-opacity="0.3"/>
</g>
</g>
<defs>
<filter id="filter0_d_923_338" x="0" y="0" width="836" height="156" filterUnits="userSpaceOnUse" color-interpolation-filters="sRGB">
<feFlood flood-opacity="0" result="BackgroundImageFix"/>
<feColorMatrix in="SourceAlpha" type="matrix" values="0 0 0 0 0 0 0 0 0 0 0 0 0 0 0 0 0 0 127 0" result="hardAlpha"/>
<feOffset dy="5"/>
<feGaussianBlur stdDeviation="4"/>
<feComposite in2="hardAlpha" operator="out"/>
<feColorMatrix type="matrix" values="0 0 0 0 0 0 0 0 0 0 0 0 0 0 0 0 0 0 0.1 0"/>
<feBlend mode="normal" in2="BackgroundImageFix" result="effect1_dropShadow_923_338"/>
<feBlend mode="normal" in="SourceGraphic" in2="effect1_dropShadow_923_338" result="shape"/>
</filter>
<clipPath id="clip0_923_338">
<rect x="8" y="3" width="820" height="140" rx="10" fill="white"/>
</clipPath>
</defs>
</svg>
