<svg width="28" height="33" viewBox="0 0 28 33" fill="none" xmlns="http://www.w3.org/2000/svg">
<path d="M8.75 24L6.5 27L8.75 30C8.94891 30.2652 9.03432 30.5986 8.98744 30.9268C8.94055 31.255 8.76522 31.5511 8.5 31.75C8.2853 31.9155 8.02102 32.0036 7.75 32C7.55594 32 7.36455 31.9548 7.19098 31.8681C7.01741 31.7813 6.86643 31.6553 6.75 31.5L4.9375 29.0781L3.125 31.5C3.00857 31.6553 2.85759 31.7813 2.68402 31.8681C2.51045 31.9548 2.31906 32 2.125 32C1.85398 32.0036 1.5897 31.9155 1.375 31.75C1.10978 31.5511 0.934447 31.255 0.887563 30.9268C0.840679 30.5986 0.926087 30.2652 1.125 30L3.375 27L1.125 24C1.02651 23.8687 0.954847 23.7193 0.914108 23.5602C0.873368 23.4012 0.864348 23.2357 0.887563 23.0732C0.910778 22.9107 0.965772 22.7544 1.04941 22.6132C1.13304 22.4719 1.24368 22.3485 1.375 22.25C1.50632 22.1515 1.65576 22.0799 1.81477 22.0391C1.97379 21.9984 2.13927 21.9894 2.30178 22.0126C2.46428 22.0358 2.62062 22.0908 2.76187 22.1744C2.90312 22.2581 3.02651 22.3687 3.125 22.5L4.9375 24.9219L6.75 22.5C6.94891 22.2348 7.24503 22.0595 7.57322 22.0126C7.90141 21.9657 8.23478 22.0511 8.5 22.25C8.76522 22.4489 8.94055 22.7451 8.98744 23.0732C9.03432 23.4014 8.94891 23.7348 8.75 24ZM17.125 29.5H14V23.25C14 22.9185 13.8683 22.6006 13.6339 22.3661C13.3995 22.1317 13.0815 22 12.75 22C12.4185 22 12.1005 22.1317 11.8661 22.3661C11.6317 22.6006 11.5 22.9185 11.5 23.25V30.75C11.5 31.0815 11.6317 31.3995 11.8661 31.6339C12.1005 31.8683 12.4185 32 12.75 32H17.125C17.4565 32 17.7745 31.8683 18.0089 31.6339C18.2433 31.3995 18.375 31.0815 18.375 30.75C18.375 30.4185 18.2433 30.1006 18.0089 29.8661C17.7745 29.6317 17.4565 29.5 17.125 29.5ZM24.2656 25.7188C23.7812 25.5938 22.9219 25.3594 22.75 25.1563V25.125C22.75 24.6094 23.125 24.3438 23.8438 24.3438C24.4021 24.3551 24.945 24.5289 25.4062 24.8438H25.3906C25.6174 25.0239 25.8979 25.1229 26.1875 25.125C26.519 25.125 26.837 24.9933 27.0714 24.7589C27.3058 24.5245 27.4375 24.2065 27.4375 23.875C27.4406 23.692 27.4012 23.5107 27.3226 23.3454C27.244 23.18 27.1283 23.0351 26.9844 22.9219C26.0828 22.2302 24.9801 21.8516 23.8438 21.8438C21.7344 21.8438 20.25 23.1875 20.25 25.125C20.25 27.0625 22.2812 27.7813 23.625 28.1406C24.1562 28.2813 24.7188 28.4219 25.0625 28.625C25.4062 28.8281 25.25 28.7813 25.25 28.875C25.25 28.9688 25.25 29.6563 23.8438 29.6563C23.2854 29.6449 22.7425 29.4712 22.2812 29.1563H22.2969C22.0701 28.9762 21.7896 28.8772 21.5 28.875C21.1685 28.875 20.8505 29.0067 20.6161 29.2411C20.3817 29.4756 20.25 29.7935 20.25 30.125C20.2469 30.3081 20.2863 30.4893 20.3649 30.6547C20.4435 30.82 20.5592 30.965 20.7031 31.0781C21.6047 31.7699 22.7074 32.1484 23.8438 32.1563C26.2969 32.1563 27.75 30.9219 27.75 28.875C27.75 26.8281 25.5625 26.0625 24.2656 25.7188ZM27.75 10.75V17C27.75 17.3315 27.6183 17.6495 27.3839 17.8839C27.1495 18.1183 26.8315 18.25 26.5 18.25H1.5C1.16848 18.25 0.850537 18.1183 0.616117 17.8839C0.381696 17.6495 0.25 17.3315 0.25 17V3.25002C0.25 2.58698 0.513392 1.95109 0.982233 1.48225C1.45107 1.01341 2.08696 0.75002 2.75 0.75002H17.75C18.0826 0.748145 18.4025 0.877242 18.6406 1.1094L27.3906 9.8594C27.6228 10.0975 27.7519 10.4175 27.75 10.75ZM24.625 10.75L17.75 3.87502V10.75H24.625Z" fill="#4D9EBF"/>
</svg>
