<svg width="14" height="14" viewBox="0 0 14 14" fill="none" xmlns="http://www.w3.org/2000/svg">
<path d="M9.0592 5.55952C9.14124 5.47748 9.1875 5.36603 9.1875 5.25C9.1875 5.13397 9.14141 5.02269 9.05936 4.94064L9.05558 4.93691C8.97389 4.8573 8.86407 4.8125 8.75 4.8125C8.63397 4.8125 8.52269 4.85859 8.44064 4.94064L4.9408 8.44048C4.85876 8.52252 4.8125 8.63397 4.8125 8.75C4.8125 8.75701 4.81267 8.76401 4.813 8.77102C4.81823 8.87965 4.86373 8.98245 4.94064 9.05936C5.02269 9.14141 5.13397 9.1875 5.25 9.1875C5.36603 9.1875 5.47731 9.14141 5.55936 9.05936L9.0592 5.55952Z" fill="white"/>
<path d="M5.55936 4.94064C5.47731 4.85859 5.36603 4.8125 5.25 4.8125C5.13397 4.8125 5.02269 4.85859 4.94064 4.94064C4.85859 5.02269 4.8125 5.13397 4.8125 5.25C4.8125 5.36603 4.85859 5.47731 4.94064 5.55936L8.44064 9.05936C8.52269 9.14141 8.63397 9.1875 8.75 9.1875C8.86603 9.1875 8.97731 9.14141 9.05936 9.05936C9.14141 8.97731 9.1875 8.86603 9.1875 8.75C9.1875 8.63397 9.14141 8.52269 9.05936 8.44064L5.55936 4.94064Z" fill="white"/>
<path fill-rule="evenodd" clip-rule="evenodd" d="M1.75 2.625C1.75 2.625 1.75 2.26256 2.00628 2.00628C2.00628 2.00628 2.26256 1.75 2.625 1.75H11.375C11.375 1.75 11.7374 1.75 11.9937 2.00628C11.9937 2.00628 12.25 2.26256 12.25 2.625V11.375C12.25 11.375 12.25 11.7374 11.9937 11.9937C11.9937 11.9937 11.7374 12.25 11.375 12.25H2.625C2.625 12.25 2.26256 12.25 2.00628 11.9937C2.00628 11.9937 1.75 11.7374 1.75 11.375V2.625ZM2.625 2.625V11.375H11.375V2.625H2.625Z" fill="white"/>
</svg>
