<svg width="36" height="20" viewBox="0 0 36 20" fill="none" xmlns="http://www.w3.org/2000/svg">
<rect x="1" y="1" width="34" height="18" rx="4" fill="white"/>
<path fill-rule="evenodd" clip-rule="evenodd" d="M11.2915 4.75033C11.2915 4.42816 11.5527 4.16699 11.8748 4.16699H12.8957C13.1633 4.16699 13.3967 4.34917 13.4616 4.60885L13.7886 5.91699H23.8332C24.0128 5.91699 24.1824 5.99975 24.293 6.14133C24.4035 6.28292 24.4427 6.46754 24.3991 6.6418L22.9408 12.4751C22.8758 12.7348 22.6425 12.917 22.3748 12.917H14.7915C14.5238 12.917 14.2905 12.7348 14.2256 12.4751L12.4402 5.33366H11.8748C11.5527 5.33366 11.2915 5.07249 11.2915 4.75033ZM14.7915 12.917C13.9861 12.917 13.3332 13.5699 13.3332 14.3753C13.3332 15.1807 13.9861 15.8337 14.7915 15.8337C15.5969 15.8337 16.2498 15.1807 16.2498 14.3753C16.2498 13.5699 15.5969 12.917 14.7915 12.917ZM22.3748 12.917C21.5694 12.917 20.9165 13.5699 20.9165 14.3753C20.9165 15.1807 21.5694 15.8337 22.3748 15.8337C23.1803 15.8337 23.8332 15.1807 23.8332 14.3753C23.8332 13.5699 23.1803 12.917 22.3748 12.917ZM14.0803 7.08366L15.247 11.7503H21.9194L23.0861 7.08366H14.0803ZM18.5832 7.66699C18.9053 7.66699 19.1665 7.92816 19.1665 8.25033V8.83366H19.7498C20.072 8.83366 20.3332 9.09483 20.3332 9.41699C20.3332 9.73916 20.072 10.0003 19.7498 10.0003H19.1665V10.5837C19.1665 10.9058 18.9053 11.167 18.5832 11.167C18.261 11.167 17.9998 10.9058 17.9998 10.5837V10.0003H17.4165C17.0943 10.0003 16.8332 9.73916 16.8332 9.41699C16.8332 9.09483 17.0943 8.83366 17.4165 8.83366H17.9998V8.25033C17.9998 7.92816 18.261 7.66699 18.5832 7.66699ZM14.7915 14.0837C14.6304 14.0837 14.4998 14.2142 14.4998 14.3753C14.4998 14.5364 14.6304 14.667 14.7915 14.667C14.9526 14.667 15.0832 14.5364 15.0832 14.3753C15.0832 14.2142 14.9526 14.0837 14.7915 14.0837ZM22.3748 14.0837C22.2138 14.0837 22.0832 14.2142 22.0832 14.3753C22.0832 14.5364 22.2138 14.667 22.3748 14.667C22.5359 14.667 22.6665 14.5364 22.6665 14.3753C22.6665 14.2142 22.5359 14.0837 22.3748 14.0837Z" fill="#0074A3"/>
<rect x="1" y="1" width="34" height="18" rx="4" stroke="#0074A3" stroke-linejoin="round"/>
</svg>
