<svg width="14" height="14" viewBox="0 0 14 14" fill="none" xmlns="http://www.w3.org/2000/svg">
<path fill-rule="evenodd" clip-rule="evenodd" d="M7 1.3125C7 1.3125 8.15683 1.3125 9.21397 1.75963C9.21397 1.75963 10.2347 2.19137 11.0217 2.97833C11.0217 2.97833 11.8086 3.76529 12.2404 4.78603C12.2404 4.78603 12.6875 5.84317 12.6875 7C12.6875 7 12.6875 8.15682 12.2404 9.21396C12.2404 9.21396 11.8086 10.2347 11.0217 11.0217C11.0217 11.0217 10.2347 11.8086 9.21397 12.2404C9.21397 12.2404 8.15682 12.6875 7 12.6875C7 12.6875 5.84317 12.6875 4.78603 12.2404C4.78603 12.2404 3.76529 11.8086 2.97833 11.0217C2.97833 11.0217 2.19137 10.2347 1.75963 9.21397C1.75963 9.21397 1.3125 8.15683 1.3125 7C1.3125 7 1.3125 5.84317 1.75963 4.78603C1.75963 4.78603 2.19137 3.76529 2.97833 2.97833C2.97833 2.97833 3.76529 2.19137 4.78603 1.75963C4.78603 1.75963 5.84317 1.3125 7 1.3125ZM7 2.1875C7 2.1875 6.02061 2.1875 5.12689 2.56551C5.12689 2.56551 4.26333 2.93077 3.59705 3.59705C3.59705 3.59705 2.93077 4.26333 2.56551 5.12689C2.56551 5.12689 2.1875 6.02061 2.1875 7C2.1875 7 2.1875 7.97939 2.56551 8.87311C2.56551 8.87311 2.93077 9.73667 3.59705 10.403C3.59705 10.403 4.26333 11.0692 5.12689 11.4345C5.12689 11.4345 6.02061 11.8125 7 11.8125C7 11.8125 7.97939 11.8125 8.87311 11.4345C8.87311 11.4345 9.73667 11.0692 10.403 10.403C10.403 10.403 11.0692 9.73667 11.4345 8.87311C11.4345 8.87311 11.8125 7.97939 11.8125 7C11.8125 7 11.8125 6.02061 11.4345 5.12689C11.4345 5.12689 11.0692 4.26333 10.403 3.59705C10.403 3.59705 9.73667 2.93076 8.87311 2.56551C8.87311 2.56551 7.97939 2.1875 7 2.1875Z" fill="white"/>
<path d="M5.39483 7.32519L7.58213 9.29376C7.66246 9.36606 7.76692 9.40625 7.875 9.40625C7.88267 9.40625 7.89034 9.40605 7.898 9.40565C8.01387 9.39955 8.12257 9.34767 8.2002 9.26142C8.2725 9.18109 8.3125 9.07683 8.3125 8.96875L8.3125 8.96677C8.31247 8.95976 8.31227 8.95275 8.3119 8.94576C8.3058 8.82988 8.25392 8.72118 8.16768 8.64356L6.3415 7L8.16768 5.35644C8.25392 5.27882 8.3058 5.17012 8.3119 5.05424C8.3123 5.04659 8.3125 5.03892 8.3125 5.03125C8.3125 5.02484 8.31236 5.01844 8.31208 5.01204C8.30763 4.91067 8.26807 4.814 8.2002 4.73858C8.11723 4.64639 7.99903 4.59375 7.875 4.59375C7.86758 4.59375 7.86016 4.59394 7.85275 4.59432C7.75246 4.59942 7.65698 4.63888 7.58233 4.70606L5.39483 6.67481C5.38343 6.68507 5.37257 6.69593 5.36231 6.70733C5.20067 6.88693 5.21523 7.16355 5.39483 7.32519Z" fill="white"/>
</svg>
