<svg width="20" height="18" viewBox="0 0 20 18" fill="none" xmlns="http://www.w3.org/2000/svg">
<path d="M10 0.875C8.39303 0.875 6.82214 1.35152 5.486 2.24431C4.14985 3.1371 3.10844 4.40605 2.49348 5.8907C1.87852 7.37535 1.71762 9.00901 2.03112 10.5851C2.34463 12.1612 3.11846 13.6089 4.25476 14.7452C5.39106 15.8815 6.8388 16.6554 8.41489 16.9689C9.99099 17.2824 11.6247 17.1215 13.1093 16.5065C14.594 15.8916 15.8629 14.8502 16.7557 13.514C17.6485 12.1779 18.125 10.607 18.125 9C18.1209 6.84638 17.2635 4.78216 15.7407 3.25932C14.2178 1.73648 12.1536 0.87913 10 0.875ZM13.8672 7.57813L9.28907 11.9531C9.17071 12.0645 9.01406 12.126 8.85157 12.125C8.77214 12.1261 8.69328 12.1115 8.61953 12.082C8.54578 12.0525 8.47861 12.0087 8.42188 11.9531L6.13282 9.76563C6.06933 9.71023 6.01769 9.64257 5.98102 9.56672C5.94434 9.49086 5.92338 9.40837 5.9194 9.32421C5.91542 9.24004 5.92849 9.15594 5.95784 9.07696C5.98719 8.99798 6.03221 8.92575 6.09019 8.86461C6.14816 8.80347 6.2179 8.75469 6.29522 8.72119C6.37253 8.68769 6.45582 8.67017 6.54007 8.66968C6.62433 8.66919 6.70781 8.68574 6.78551 8.71834C6.86321 8.75094 6.93351 8.79891 6.99219 8.85937L8.85157 10.6328L13.0078 6.67187C13.1293 6.56585 13.2871 6.51091 13.4482 6.51853C13.6093 6.52615 13.7612 6.59575 13.8722 6.71277C13.9832 6.8298 14.0446 6.98519 14.0437 7.14646C14.0428 7.30773 13.9795 7.4624 13.8672 7.57813Z" fill="#00A65A"/>
</svg>
