<svg width="30" height="30" viewBox="0 0 30 30" fill="none" xmlns="http://www.w3.org/2000/svg">
<rect width="30" height="30" rx="10" fill="#0074A3" fill-opacity="0.7"/>
<path d="M21.6953 11.4297L17.3203 7.0547C17.2012 6.93862 17.0413 6.87407 16.875 6.87501H9.375C9.04348 6.87501 8.72554 7.00671 8.49112 7.24113C8.2567 7.47555 8.125 7.79349 8.125 8.12501V21.875C8.125 22.2065 8.2567 22.5245 8.49112 22.7589C8.72554 22.9933 9.04348 23.125 9.375 23.125H20.625C20.9565 23.125 21.2745 22.9933 21.5089 22.7589C21.7433 22.5245 21.875 22.2065 21.875 21.875V11.875C21.8759 11.7087 21.8114 11.5488 21.6953 11.4297ZM17.5 18.75H12.5C12.3342 18.75 12.1753 18.6842 12.0581 18.567C11.9408 18.4497 11.875 18.2908 11.875 18.125C11.875 17.9592 11.9408 17.8003 12.0581 17.6831C12.1753 17.5659 12.3342 17.5 12.5 17.5H17.5C17.6658 17.5 17.8247 17.5659 17.9419 17.6831C18.0592 17.8003 18.125 17.9592 18.125 18.125C18.125 18.2908 18.0592 18.4497 17.9419 18.567C17.8247 18.6842 17.6658 18.75 17.5 18.75ZM17.5 16.25H12.5C12.3342 16.25 12.1753 16.1842 12.0581 16.067C11.9408 15.9497 11.875 15.7908 11.875 15.625C11.875 15.4592 11.9408 15.3003 12.0581 15.1831C12.1753 15.0659 12.3342 15 12.5 15H17.5C17.6658 15 17.8247 15.0659 17.9419 15.1831C18.0592 15.3003 18.125 15.4592 18.125 15.625C18.125 15.7908 18.0592 15.9497 17.9419 16.067C17.8247 16.1842 17.6658 16.25 17.5 16.25ZM16.875 11.875V8.43751L20.3125 11.875H16.875Z" fill="white"/>
</svg>
