<svg width="30" height="33" viewBox="0 0 30 33" fill="none" xmlns="http://www.w3.org/2000/svg">
<path d="M29.2813 23.7344L26.1563 31.2344C26.0621 31.4637 25.9019 31.6598 25.696 31.7978C25.4901 31.9358 25.2479 32.0094 25 32.0094C24.7521 32.0094 24.5099 31.9358 24.304 31.7978C24.0981 31.6598 23.9379 31.4637 23.8438 31.2344L20.7188 23.7344C20.6551 23.5826 20.6221 23.4197 20.6214 23.255C20.6207 23.0904 20.6525 22.9273 20.7149 22.7749C20.7773 22.6226 20.8691 22.484 20.985 22.3671C21.101 22.2503 21.2388 22.1574 21.3906 22.0938C21.5425 22.0302 21.7054 21.9971 21.87 21.9964C22.0346 21.9958 22.1977 22.0275 22.3501 22.0899C22.5024 22.1523 22.641 22.2441 22.7579 22.36C22.8748 22.476 22.9676 22.6138 23.0313 22.7656L25 27.5L26.9688 22.7656C27.0324 22.6138 27.1253 22.476 27.2421 22.36C27.359 22.2441 27.4976 22.1523 27.6499 22.0899C27.8023 22.0275 27.9654 21.9958 28.13 21.9964C28.2947 21.9971 28.4575 22.0302 28.6094 22.0938C28.7612 22.1574 28.899 22.2503 29.015 22.3671C29.1309 22.484 29.2227 22.6226 29.2851 22.7749C29.3475 22.9273 29.3793 23.0904 29.3786 23.255C29.3779 23.4197 29.3449 23.5826 29.2813 23.7344ZM5.3125 24.5C5.81068 24.505 6.28938 24.6942 6.65625 25.0313C6.77735 25.143 6.91961 25.2294 7.07462 25.2853C7.22964 25.3412 7.39428 25.3655 7.55884 25.3568C7.72339 25.348 7.88453 25.3064 8.03276 25.2344C8.18098 25.1624 8.31329 25.0615 8.42188 24.9375C8.64558 24.693 8.76302 24.3696 8.74837 24.0385C8.73372 23.7074 8.58818 23.3957 8.34375 23.1719C7.51065 22.4237 6.43223 22.0068 5.3125 22C2.73438 22 0.625 24.25 0.625 27C0.625 29.75 2.73438 32 5.3125 32C6.43223 31.9932 7.51065 31.5763 8.34375 30.8281C8.58818 30.6043 8.73372 30.2926 8.74837 29.9615C8.76302 29.6304 8.64558 29.3071 8.42188 29.0625C8.31329 28.9386 8.18098 28.8376 8.03276 28.7656C7.88453 28.6936 7.72339 28.652 7.55884 28.6433C7.39428 28.6345 7.22964 28.6588 7.07462 28.7147C6.91961 28.7706 6.77735 28.857 6.65625 28.9688C6.28938 29.3058 5.81068 29.4951 5.3125 29.5C4.10938 29.5 3.125 28.375 3.125 27C3.125 25.625 4.10938 24.5 5.3125 24.5ZM15.2656 25.7188C14.7813 25.5938 13.9219 25.3594 13.75 25.1563V25.125C13.75 24.6094 14.125 24.3438 14.8438 24.3438C15.4021 24.3551 15.945 24.5289 16.4063 24.8438H16.3906C16.6174 25.0239 16.8979 25.1229 17.1875 25.125C17.519 25.125 17.837 24.9933 18.0714 24.7589C18.3058 24.5245 18.4375 24.2065 18.4375 23.875C18.4406 23.692 18.4012 23.5107 18.3226 23.3454C18.244 23.18 18.1283 23.0351 17.9844 22.9219C17.0828 22.2302 15.9801 21.8516 14.8438 21.8438C12.7344 21.8438 11.25 23.1875 11.25 25.125C11.25 27.0625 13.2813 27.7813 14.625 28.1406C15.1563 28.2813 15.7188 28.4219 16.0625 28.625C16.4063 28.8281 16.25 28.7813 16.25 28.875C16.25 28.9688 16.25 29.6563 14.8438 29.6563C14.2854 29.6449 13.7425 29.4712 13.2813 29.1563H13.2969C13.0701 28.9762 12.7896 28.8772 12.5 28.875C12.1685 28.875 11.8505 29.0067 11.6161 29.2411C11.3817 29.4756 11.25 29.7935 11.25 30.125C11.2469 30.3081 11.2863 30.4893 11.3649 30.6547C11.4435 30.82 11.5592 30.965 11.7031 31.0781C12.6047 31.7699 13.7074 32.1484 14.8438 32.1563C17.2969 32.1563 18.75 30.9219 18.75 28.875C18.75 26.8281 16.5625 26.0625 15.2656 25.7188ZM1.25 17V3.25002C1.25 2.58698 1.51339 1.95109 1.98223 1.48225C2.45107 1.01341 3.08696 0.75002 3.75 0.75002H18.75C19.0826 0.748145 19.4025 0.877242 19.6406 1.1094L28.3906 9.8594C28.6228 10.0975 28.7519 10.4175 28.75 10.75V17C28.75 17.3315 28.6183 17.6495 28.3839 17.8839C28.1495 18.1183 27.8315 18.25 27.5 18.25H2.5C2.16848 18.25 1.85054 18.1183 1.61612 17.8839C1.3817 17.6495 1.25 17.3315 1.25 17ZM18.75 10.75H25.625L18.75 3.87502V10.75Z" fill="#4D9EBF"/>
</svg>
