<svg width="20" height="20" viewBox="0 0 20 20" fill="none" xmlns="http://www.w3.org/2000/svg">
<path d="M10 5C9.65482 5 9.375 5.27982 9.375 5.625V6.875C9.375 7.22018 9.65482 7.5 10 7.5C10.3452 7.5 10.625 7.22018 10.625 6.875V5.625C10.625 5.27982 10.3452 5 10 5Z" fill="#666666"/>
<path d="M10 12.5C9.65482 12.5 9.375 12.7798 9.375 13.125V14.375C9.375 14.7202 9.65482 15 10 15C10.3452 15 10.625 14.7202 10.625 14.375V13.125C10.625 12.7798 10.3452 12.5 10 12.5Z" fill="#666666"/>
<path fill-rule="evenodd" clip-rule="evenodd" d="M10 1.875C10 1.875 11.6526 1.875 13.1628 2.51376C13.1628 2.51376 14.621 3.13053 15.7452 4.25476C15.7452 4.25476 16.8695 5.37899 17.4862 6.83719C17.4862 6.83719 18.125 8.34739 18.125 10C18.125 10 18.125 11.6526 17.4862 13.1628C17.4862 13.1628 16.8695 14.621 15.7452 15.7452C15.7452 15.7452 14.621 16.8695 13.1628 17.4862C13.1628 17.4862 11.6526 18.125 10 18.125C10 18.125 8.34739 18.125 6.83719 17.4862C6.83719 17.4862 5.37899 16.8695 4.25476 15.7452C4.25476 15.7452 3.13053 14.621 2.51376 13.1628C2.51376 13.1628 1.875 11.6526 1.875 10C1.875 10 1.875 8.34739 2.51376 6.83719C2.51376 6.83719 3.13053 5.37899 4.25476 4.25476C4.25476 4.25476 5.37899 3.13053 6.83719 2.51376C6.83719 2.51376 8.34739 1.875 10 1.875ZM10 3.125C10 3.125 8.60087 3.125 7.32413 3.66501C7.32413 3.66501 6.09047 4.18681 5.13864 5.13864C5.13864 5.13864 4.18681 6.09047 3.66502 7.32413C3.66502 7.32413 3.125 8.60087 3.125 10C3.125 10 3.125 11.3991 3.66502 12.6759C3.66502 12.6759 4.18681 13.9095 5.13864 14.8614C5.13864 14.8614 6.09047 15.8132 7.32413 16.335C7.32413 16.335 8.60087 16.875 10 16.875C10 16.875 11.3991 16.875 12.6759 16.335C12.6759 16.335 13.9095 15.8132 14.8614 14.8614C14.8614 14.8614 15.8132 13.9095 16.335 12.6759C16.335 12.6759 16.875 11.3991 16.875 10C16.875 10 16.875 8.60087 16.335 7.32413C16.335 7.32413 15.8132 6.09047 14.8614 5.13864C14.8614 5.13864 13.9095 4.18681 12.6759 3.66501C12.6759 3.66501 11.3991 3.125 10 3.125Z" fill="#666666"/>
<path d="M9.0625 7.5H11.875C12.2202 7.5 12.5 7.22018 12.5 6.875C12.5 6.52982 12.2202 6.25 11.875 6.25H9.0625C8.15641 6.25 7.5157 6.8907 7.5157 6.8907C6.875 7.53141 6.875 8.4375 6.875 8.4375C6.875 9.34359 7.5157 9.9843 7.5157 9.9843C8.15641 10.625 9.0625 10.625 9.0625 10.625H10.9375C11.3258 10.625 11.6004 10.8996 11.6004 10.8996C11.875 11.1742 11.875 11.5625 11.875 11.5625C11.875 11.9508 11.6004 12.2254 11.6004 12.2254C11.3258 12.5 10.9375 12.5 10.9375 12.5H8.125C7.77982 12.5 7.5 12.7798 7.5 13.125C7.5 13.4702 7.77982 13.75 8.125 13.75H10.9375C11.8436 13.75 12.4843 13.1093 12.4843 13.1093C13.125 12.4686 13.125 11.5625 13.125 11.5625C13.125 10.6564 12.4843 10.0157 12.4843 10.0157C11.8436 9.375 10.9375 9.375 10.9375 9.375H9.0625C8.67417 9.375 8.39959 9.10041 8.39959 9.10041C8.125 8.82583 8.125 8.4375 8.125 8.4375C8.125 8.04917 8.39959 7.77459 8.39959 7.77459C8.67417 7.5 9.0625 7.5 9.0625 7.5Z" fill="#666666"/>
</svg>
