<svg width="36" height="20" viewBox="0 0 36 20" fill="none" xmlns="http://www.w3.org/2000/svg">
<rect x="1" y="1" width="34" height="18" rx="4" fill="white"/>
<path fill-rule="evenodd" clip-rule="evenodd" d="M19.575 4.75C19.8649 4.75 20.1 4.98505 20.1 5.275L20.0997 5.79974L22.9135 5.8C23.0305 5.8 23.0729 5.81218 23.1157 5.83506C23.1585 5.85794 23.1921 5.89151 23.2149 5.93429C23.2378 5.97707 23.25 6.0195 23.25 6.13651V6.51349C23.25 6.6305 23.2378 6.67293 23.2149 6.71571C23.1921 6.75849 23.1585 6.79206 23.1157 6.81494C23.0729 6.83782 23.0305 6.85 22.9135 6.85L22.1997 6.84974L22.2 14.725C22.2 15.0149 21.9649 15.25 21.675 15.25H14.325C14.0351 15.25 13.8 15.0149 13.8 14.725L13.7997 6.84974L13.0865 6.85C12.9695 6.85 12.9271 6.83782 12.8843 6.81494C12.8415 6.79206 12.8079 6.75849 12.7851 6.71571C12.7622 6.67293 12.75 6.6305 12.75 6.51349V6.13651C12.75 6.0195 12.7622 5.97707 12.7851 5.93429C12.8079 5.89151 12.8415 5.85794 12.8843 5.83506C12.9271 5.81218 12.9695 5.8 13.0865 5.8L15.8997 5.79974L15.9 5.275C15.9 4.98505 16.1351 4.75 16.425 4.75H19.575ZM21.1497 6.84974H14.8497L14.85 14.2H21.15L21.1497 6.84974ZM17.2125 8.425C17.3575 8.425 17.475 8.54253 17.475 8.6875V12.3625C17.475 12.5075 17.3575 12.625 17.2125 12.625H16.6875C16.5425 12.625 16.425 12.5075 16.425 12.3625V8.6875C16.425 8.54253 16.5425 8.425 16.6875 8.425H17.2125ZM19.3125 8.425C19.4575 8.425 19.575 8.54253 19.575 8.6875V12.3625C19.575 12.5075 19.4575 12.625 19.3125 12.625H18.7875C18.6425 12.625 18.525 12.5075 18.525 12.3625V8.6875C18.525 8.54253 18.6425 8.425 18.7875 8.425H19.3125Z" fill="#0074A3"/>
<rect x="1" y="1" width="34" height="18" rx="4" stroke="#0074A3" stroke-linejoin="round"/>
</svg>
