<svg width="12" height="12" viewBox="0 0 12 12" fill="none" xmlns="http://www.w3.org/2000/svg">
<path fill-rule="evenodd" clip-rule="evenodd" d="M3.90738 6.13583C3.91834 6.12552 3.92977 6.1157 3.94162 6.10639L3.89645 6.14645C3.90005 6.14284 3.9037 6.1393 3.90738 6.13583ZM3.75 6.5L3.75008 6.49082C3.7503 6.47899 3.75093 6.46717 3.75198 6.45537L3.75 6.5ZM3.89645 6.85355L3.85984 6.81272L3.85639 6.80837L3.89645 6.85355ZM8.05837 5.39361C8.07041 5.38417 8.082 5.37418 8.09311 5.36371C8.09663 5.36038 8.10011 5.357 8.10355 5.35355L8.05837 5.39361ZM8.24973 5.01662L8.25 5L8.24819 5.04261C8.24893 5.03396 8.24944 5.0253 8.24973 5.01662ZM8.10355 4.64645C8.11779 4.66068 8.13117 4.67577 8.14361 4.69163L8.10355 4.64645Z" fill="white"/>
<path fill-rule="evenodd" clip-rule="evenodd" d="M5.86207 0.520022C5.95359 0.493314 6.05084 0.493326 6.14235 0.520058L10.6402 1.83397C10.8534 1.89626 11 2.09177 11 2.31391V5.00843C11 8.05578 9.04981 10.7612 6.15871 11.7245C6.05612 11.7587 5.94522 11.7587 5.84264 11.7245C2.95078 10.7612 1 8.05525 1 5.00717V2.31391C1 2.09172 1.14663 1.89618 1.35992 1.83393L5.86207 0.520022ZM7.75 6C8.02614 6 8.25 6.22386 8.25 6.5C8.25 6.75642 8.05698 6.96775 7.80831 6.99664L7.75 7H5.4575L5.85355 7.39645C6.04882 7.59171 6.04882 7.90829 5.85355 8.10355C5.67331 8.2838 5.3897 8.29766 5.19355 8.14515L5.14645 8.10355L3.89645 6.85355C3.87875 6.83586 3.86266 6.81716 3.84817 6.79765C3.83924 6.78557 3.83086 6.77314 3.82303 6.76033C3.8193 6.75431 3.81575 6.7482 3.81234 6.74203C3.8069 6.73215 3.80169 6.72195 3.79683 6.71155C3.79284 6.70305 3.7891 6.6944 3.78561 6.68567C3.78166 6.67579 3.77806 6.6659 3.77477 6.65587C3.77188 6.64695 3.76916 6.63775 3.76671 6.6285C3.76419 6.61915 3.762 6.60982 3.76008 6.6004C3.75835 6.59169 3.75681 6.58297 3.75551 6.57423C3.75405 6.56471 3.75287 6.55485 3.75199 6.5449C3.75095 6.533 3.75032 6.52134 3.75009 6.50968L3.75 6.5C3.75 6.47469 3.75188 6.44982 3.75551 6.42552C3.75681 6.41703 3.75835 6.40831 3.76012 6.39964C3.76232 6.38863 3.76492 6.37778 3.76786 6.36708C3.77005 6.35927 3.77236 6.35157 3.77487 6.34393C3.77835 6.33323 3.78229 6.32249 3.78657 6.31194C3.78981 6.30396 3.79322 6.29614 3.79684 6.28839C3.80169 6.27805 3.8069 6.26785 3.81244 6.25786C3.81575 6.2518 3.8193 6.24569 3.823 6.23965C3.83086 6.22686 3.83925 6.21443 3.84816 6.20242L3.85122 6.19829L3.85646 6.19149C3.872 6.17172 3.88903 6.1531 3.90738 6.13583C3.92179 6.12226 3.93681 6.10971 3.95235 6.09817C3.96443 6.08925 3.97686 6.08086 3.98967 6.07303C3.99569 6.0693 4.0018 6.06575 4.00797 6.06234C4.01785 6.0569 4.02805 6.05169 4.03845 6.04683C4.04695 6.04284 4.0556 6.0391 4.06433 6.03561C4.07421 6.03166 4.0841 6.02806 4.09413 6.02477C4.10157 6.02236 4.10927 6.02005 4.117 6.01792C4.12778 6.01492 4.13863 6.01232 4.1496 6.01008C4.15831 6.00835 4.16703 6.00681 4.17577 6.00551C4.18088 6.00471 4.18627 6.00399 4.19169 6.00336L4.20537 6.00198C4.21717 6.00093 4.22899 6.0003 4.24082 6.00008L4.25 6H7.75ZM6.80645 3.35485L6.85355 3.39645L8.10355 4.64645C8.12125 4.66414 8.13734 4.68284 8.15183 4.70235C8.16075 4.71443 8.16914 4.72686 8.17697 4.73967C8.1807 4.74569 8.18425 4.7518 8.18766 4.75797C8.1931 4.76785 8.19831 4.77805 8.20317 4.78845C8.20716 4.79695 8.2109 4.8056 8.21439 4.81433C8.21834 4.82421 8.22194 4.8341 8.22523 4.84413C8.22764 4.85157 8.22995 4.85927 8.23208 4.867C8.23508 4.87778 8.23768 4.88863 8.23992 4.8996C8.24165 4.90831 8.24319 4.91703 8.24449 4.92577C8.24602 4.93574 8.24723 4.94606 8.24813 4.95647C8.24892 4.96587 8.24945 4.97487 8.24974 4.98387C8.24991 4.98889 8.25 4.99444 8.25 5C8.25 5.02531 8.24812 5.05018 8.24449 5.07448C8.24319 5.08297 8.24165 5.09169 8.23988 5.10036C8.23768 5.11137 8.23508 5.12222 8.23214 5.13292C8.22995 5.14073 8.22764 5.14843 8.22513 5.15607C8.22194 5.1659 8.21834 5.17579 8.21445 5.18553C8.2109 5.1944 8.20716 5.20305 8.20316 5.21161C8.19831 5.22195 8.1931 5.23215 8.18756 5.24214C8.18425 5.2482 8.1807 5.25431 8.177 5.26035C8.16914 5.27314 8.16075 5.28557 8.15184 5.29758C8.14912 5.3013 8.14636 5.30492 8.14354 5.30851C8.12814 5.32811 8.11127 5.34657 8.09311 5.36371C8.07855 5.37746 8.06336 5.39016 8.04765 5.40183C8.03557 5.41075 8.02314 5.41914 8.01033 5.42697C8.00431 5.4307 7.9982 5.43425 7.99203 5.43766C7.98215 5.4431 7.97195 5.44831 7.96155 5.45317C7.95305 5.45716 7.9444 5.4609 7.93567 5.46439C7.92579 5.46834 7.9159 5.47194 7.90587 5.47523C7.89843 5.47764 7.89073 5.47995 7.883 5.48208C7.87222 5.48508 7.86137 5.48768 7.8504 5.48992C7.84169 5.49165 7.83297 5.49319 7.82423 5.49449C7.81912 5.49529 7.81373 5.49601 7.80831 5.49664L7.79261 5.49819C7.78396 5.49893 7.7753 5.49944 7.76662 5.49973L7.75 5.5H4.25C3.97386 5.5 3.75 5.27614 3.75 5C3.75 4.74358 3.94302 4.53225 4.19169 4.50336L4.25 4.5H6.5425L6.14645 4.10355C5.95118 3.90829 5.95118 3.59171 6.14645 3.39645C6.32669 3.2162 6.6103 3.20234 6.80645 3.35485Z" fill="white"/>
</svg>
