<svg width="30" height="30" viewBox="0 0 30 30" fill="none" xmlns="http://www.w3.org/2000/svg">
<rect width="30" height="30" rx="10" fill="white"/>
<path fill-rule="evenodd" clip-rule="evenodd" d="M11.086 10.4904C11.086 8.3554 12.8624 6.625 15.0531 6.625C17.2438 6.625 19.0202 8.3554 19.0202 10.4904C19.0202 12.6254 17.2438 14.3558 15.0531 14.3558C12.8624 14.3558 11.086 12.6254 11.086 10.4904ZM8.00049 20.2827C8.00049 17.7208 10.1075 15.6442 12.7037 15.6442H17.4025C19.9988 15.6442 22.1058 17.7208 22.1058 20.2827V22.6019C22.1058 23.0288 21.7531 23.375 21.3211 23.375H8.78509C8.35312 23.375 8.00049 23.0288 8.00049 22.6019V20.2827Z" fill="#0074A3" fill-opacity="0.7"/>
</svg>
