<svg width="14" height="14" viewBox="0 0 14 14" fill="none" xmlns="http://www.w3.org/2000/svg">
<path fill-rule="evenodd" clip-rule="evenodd" d="M12.5594 3.80936L7.30936 9.05936C7.22731 9.14141 7.11603 9.1875 7 9.1875H5.25C5.00838 9.1875 4.8125 8.99162 4.8125 8.75V7C4.8125 6.88397 4.85859 6.77269 4.94064 6.69064L10.1906 1.44064C10.2727 1.35859 10.384 1.3125 10.5 1.3125C10.616 1.3125 10.7273 1.35859 10.8094 1.44064L12.5594 3.19064C12.7302 3.3615 12.7302 3.6385 12.5594 3.80936ZM10.5 2.36872L11.6313 3.5L6.81878 8.3125H5.6875V7.18122L10.5 2.36872Z" fill="#666666"/>
<path d="M10.628 5.12172C10.7101 5.20377 10.8215 5.25 10.9375 5.25C10.945 5.25 10.9526 5.2498 10.9601 5.24941C11.0682 5.24382 11.1703 5.19837 11.2469 5.12186C11.3289 5.03981 11.375 4.92853 11.375 4.8125C11.375 4.69647 11.3289 4.58519 11.2469 4.50314L9.49686 2.75314C9.41481 2.67109 9.30353 2.625 9.1875 2.625C9.07147 2.625 8.96019 2.67109 8.87814 2.75314C8.79609 2.83519 8.75 2.94647 8.75 3.0625C8.75 3.17853 8.79609 3.28981 8.87814 3.37186L10.628 5.12172Z" fill="#666666"/>
<path d="M2.625 2.625H7.4375C7.67912 2.625 7.875 2.42912 7.875 2.1875C7.875 1.94588 7.67912 1.75 7.4375 1.75H2.625C2.26256 1.75 2.00628 2.00628 2.00628 2.00628C1.75 2.26256 1.75 2.625 1.75 2.625V11.375C1.75 11.7374 2.00628 11.9937 2.00628 11.9937C2.26256 12.25 2.625 12.25 2.625 12.25H11.375C11.7374 12.25 11.9937 11.9937 11.9937 11.9937C12.25 11.7374 12.25 11.375 12.25 11.375V6.5625C12.25 6.32088 12.0541 6.125 11.8125 6.125C11.5709 6.125 11.375 6.32088 11.375 6.5625V11.375H2.625V2.625Z" fill="#666666"/>
</svg>
