<svg width="12" height="12" viewBox="0 0 12 12" fill="none" xmlns="http://www.w3.org/2000/svg">
<path d="M6 1.125C5.03582 1.125 4.09329 1.41091 3.2916 1.94659C2.48991 2.48226 1.86507 3.24363 1.49609 4.13442C1.12711 5.02521 1.03057 6.00541 1.21867 6.95107C1.40678 7.89672 1.87108 8.76536 2.55286 9.44715C3.23464 10.1289 4.10328 10.5932 5.04894 10.7813C5.99459 10.9694 6.97479 10.8729 7.86558 10.5039C8.75637 10.1349 9.51774 9.51009 10.0534 8.7084C10.5891 7.90672 10.875 6.96418 10.875 6C10.8725 4.70783 10.3581 3.46929 9.44441 2.55559C8.53071 1.64189 7.29217 1.12748 6 1.125ZM6 10.125C5.18415 10.125 4.38663 9.88307 3.70827 9.42981C3.02992 8.97655 2.50121 8.33231 2.189 7.57857C1.87679 6.82482 1.7951 5.99542 1.95426 5.19525C2.11343 4.39508 2.5063 3.66008 3.08319 3.08318C3.66008 2.50629 4.39508 2.11342 5.19525 1.95426C5.99543 1.7951 6.82483 1.87679 7.57857 2.189C8.33232 2.50121 8.97655 3.02992 9.42981 3.70827C9.88308 4.38663 10.125 5.18415 10.125 6C10.1238 7.09364 9.68877 8.14213 8.91545 8.91545C8.14213 9.68876 7.09364 10.1238 6 10.125ZM9 6C9 6.59334 8.82405 7.17336 8.49441 7.66671C8.16477 8.16006 7.69623 8.54458 7.14805 8.77164C6.59987 8.9987 5.99667 9.05811 5.41473 8.94236C4.83279 8.8266 4.29824 8.54088 3.87868 8.12132C3.45912 7.70176 3.1734 7.16721 3.05765 6.58527C2.94189 6.00333 3.0013 5.40013 3.22836 4.85195C3.45543 4.30377 3.83994 3.83524 4.33329 3.50559C4.82664 3.17595 5.40666 3 6 3C6.79527 3.00124 7.55761 3.31771 8.11995 3.88005C8.68229 4.44239 8.99876 5.20473 9 6Z" fill="white"/>
</svg>
