<svg width="16" height="16" viewBox="0 0 16 16" fill="none" xmlns="http://www.w3.org/2000/svg">
<path d="M10.2712 5.47829C10.365 5.57206 10.4924 5.625 10.625 5.625C10.7576 5.625 10.8848 5.57232 10.9786 5.47855C11.0723 5.38479 11.125 5.25761 11.125 5.125C11.125 4.99239 11.0723 4.86521 10.9786 4.77145L8.35355 2.14645C8.25978 2.05268 8.13261 2 8 2C7.86739 2 7.74022 2.05268 7.64645 2.14645L5.02163 4.77126C4.92787 4.86503 4.875 4.99239 4.875 5.125C4.875 5.13301 4.87519 5.14102 4.87558 5.14902C4.88155 5.27318 4.93355 5.39066 5.02145 5.47855C5.11521 5.57232 5.24239 5.625 5.375 5.625C5.50761 5.625 5.63479 5.57232 5.72855 5.47855L8 3.20711L10.2712 5.47829Z" fill="white"/>
<path d="M8.5 9.5V2.5C8.5 2.22386 8.27614 2 8 2C7.72386 2 7.5 2.22386 7.5 2.5V9.5C7.5 9.77614 7.72386 10 8 10C8.27614 10 8.5 9.77614 8.5 9.5Z" fill="white"/>
<path d="M3 13V9.5C3 9.22386 2.77614 9 2.5 9C2.22386 9 2 9.22386 2 9.5V13C2 13.4142 2.29289 13.7071 2.29289 13.7071C2.58579 14 3 14 3 14H13C13.4142 14 13.7071 13.7071 13.7071 13.7071C14 13.4142 14 13 14 13V9.5C14 9.22386 13.7761 9 13.5 9C13.2239 9 13 9.22386 13 9.5V13H3Z" fill="white"/>
</svg>
