<svg width="13" height="12" viewBox="0 0 13 12" fill="none" xmlns="http://www.w3.org/2000/svg">
<path d="M6.45264 1.125C5.48845 1.125 4.54592 1.41091 3.74423 1.94659C2.94254 2.48226 2.3177 3.24363 1.94873 4.13442C1.57975 5.02521 1.48321 6.00541 1.67131 6.95107C1.85941 7.89672 2.32371 8.76536 3.00549 9.44715C3.68727 10.1289 4.55592 10.5932 5.50157 10.7813C6.44723 10.9694 7.42743 10.8729 8.31822 10.5039C9.20901 10.1349 9.97038 9.51009 10.5061 8.7084C11.0417 7.90672 11.3276 6.96418 11.3276 6C11.3252 4.70783 10.8108 3.46929 9.89705 2.55559C8.98334 1.64189 7.74481 1.12748 6.45264 1.125ZM6.07764 3.75C6.07764 3.65054 6.11715 3.55516 6.18747 3.48484C6.2578 3.41451 6.35318 3.375 6.45264 3.375C6.5521 3.375 6.64748 3.41451 6.7178 3.48484C6.78813 3.55516 6.82764 3.65054 6.82764 3.75V6.375C6.82764 6.47446 6.78813 6.56984 6.7178 6.64017C6.64748 6.71049 6.5521 6.75 6.45264 6.75C6.35318 6.75 6.2578 6.71049 6.18747 6.64017C6.11715 6.56984 6.07764 6.47446 6.07764 6.375V3.75ZM6.45264 8.625C6.34139 8.625 6.23263 8.59201 6.14013 8.5302C6.04763 8.46839 5.97553 8.38054 5.93296 8.27776C5.89038 8.17498 5.87924 8.06188 5.90095 7.95276C5.92265 7.84365 5.97622 7.74342 6.05489 7.66475C6.13356 7.58609 6.23379 7.53251 6.3429 7.51081C6.45201 7.4891 6.56511 7.50024 6.6679 7.54282C6.77068 7.58539 6.85853 7.65749 6.92034 7.74999C6.98215 7.84249 7.01514 7.95125 7.01514 8.0625C7.01514 8.21168 6.95588 8.35476 6.85039 8.46025C6.7449 8.56574 6.60182 8.625 6.45264 8.625Z" fill="#E14101"/>
</svg>
