<svg width="930" height="140" viewBox="0 0 930 140" fill="none" xmlns="http://www.w3.org/2000/svg">
<g clip-path="url(#clip0_923_338)">
<rect width="930" height="140" rx="10" fill="#0074A3" fill-opacity="0.7"/>
<path d="M101.584 -19.856L78.16 70H51.664L37.328 10.864L22.48 70H-4.016L-26.8 -19.856H-3.376L9.552 45.552L25.552 -19.856H49.616L64.976 45.552L78.032 -19.856H101.584ZM134.449 -19.856V70H112.561V-19.856H134.449ZM182.823 70.896C176.252 70.896 170.364 69.8293 165.159 67.696C159.954 65.5627 155.772 62.4053 152.615 58.224C149.543 54.0427 147.922 49.008 147.751 43.12H171.047C171.388 46.448 172.54 49.008 174.503 50.8C176.466 52.5067 179.026 53.36 182.183 53.36C185.426 53.36 187.986 52.6347 189.863 51.184C191.74 49.648 192.679 47.5573 192.679 44.912C192.679 42.6933 191.911 40.8587 190.375 39.408C188.924 37.9573 187.09 36.7627 184.871 35.824C182.738 34.8853 179.666 33.8187 175.655 32.624C169.852 30.832 165.116 29.04 161.447 27.248C157.778 25.456 154.62 22.8107 151.975 19.312C149.33 15.8133 148.007 11.248 148.007 5.616C148.007 -2.74667 151.036 -9.27467 157.095 -13.968C163.154 -18.7467 171.047 -21.136 180.775 -21.136C190.674 -21.136 198.652 -18.7467 204.711 -13.968C210.77 -9.27467 214.012 -2.704 214.439 5.744H190.759C190.588 2.84266 189.522 0.581332 187.559 -1.04C185.596 -2.74667 183.079 -3.60001 180.007 -3.60001C177.362 -3.60001 175.228 -2.87467 173.607 -1.424C171.986 -0.0586726 171.175 1.94666 171.175 4.592C171.175 7.49333 172.54 9.75466 175.271 11.376C178.002 12.9973 182.268 14.7467 188.071 16.624C193.874 18.5867 198.567 20.464 202.151 22.256C205.82 24.048 208.978 26.6507 211.623 30.064C214.268 33.4773 215.591 37.872 215.591 43.248C215.591 48.368 214.268 53.0187 211.623 57.2C209.063 61.3813 205.308 64.7093 200.359 67.184C195.41 69.6587 189.564 70.896 182.823 70.896ZM306.885 -19.856V70H284.997V33.008H250.949V70H229.061V-19.856H250.949V15.344H284.997V-19.856H306.885ZM344.574 53.104H373.246V70H322.686V-19.856H344.574V53.104ZM405.574 -19.856V70H383.686V-19.856H405.574ZM453.948 70.896C447.377 70.896 441.489 69.8293 436.284 67.696C431.079 65.5627 426.897 62.4053 423.74 58.224C420.668 54.0427 419.047 49.008 418.876 43.12H442.172C442.513 46.448 443.665 49.008 445.628 50.8C447.591 52.5067 450.151 53.36 453.308 53.36C456.551 53.36 459.111 52.6347 460.988 51.184C462.865 49.648 463.804 47.5573 463.804 44.912C463.804 42.6933 463.036 40.8587 461.5 39.408C460.049 37.9573 458.215 36.7627 455.996 35.824C453.863 34.8853 450.791 33.8187 446.78 32.624C440.977 30.832 436.241 29.04 432.572 27.248C428.903 25.456 425.745 22.8107 423.1 19.312C420.455 15.8133 419.132 11.248 419.132 5.616C419.132 -2.74667 422.161 -9.27467 428.22 -13.968C434.279 -18.7467 442.172 -21.136 451.9 -21.136C461.799 -21.136 469.777 -18.7467 475.836 -13.968C481.895 -9.27467 485.137 -2.704 485.564 5.744H461.884C461.713 2.84266 460.647 0.581332 458.684 -1.04C456.721 -2.74667 454.204 -3.60001 451.132 -3.60001C448.487 -3.60001 446.353 -2.87467 444.732 -1.424C443.111 -0.0586726 442.3 1.94666 442.3 4.592C442.3 7.49333 443.665 9.75466 446.396 11.376C449.127 12.9973 453.393 14.7467 459.196 16.624C464.999 18.5867 469.692 20.464 473.276 22.256C476.945 24.048 480.103 26.6507 482.748 30.064C485.393 33.4773 486.716 37.872 486.716 43.248C486.716 48.368 485.393 53.0187 482.748 57.2C480.188 61.3813 476.433 64.7093 471.484 67.184C466.535 69.6587 460.689 70.896 453.948 70.896ZM564.826 -19.856V-2.32H541.018V70H519.13V-2.32H495.322V-19.856H564.826Z" fill="white" fill-opacity="0.3"/>
</g>
<defs>
<clipPath id="clip0_923_338">
<rect width="930" height="140" rx="10" fill="white"/>
</clipPath>
</defs>
</svg>
