<svg width="20" height="18" viewBox="0 0 20 18" fill="none" xmlns="http://www.w3.org/2000/svg">
<path d="M10 0.875C8.39303 0.875 6.82214 1.35152 5.486 2.24431C4.14985 3.1371 3.10844 4.40605 2.49348 5.8907C1.87852 7.37535 1.71762 9.00901 2.03112 10.5851C2.34463 12.1612 3.11846 13.6089 4.25476 14.7452C5.39106 15.8815 6.8388 16.6554 8.41489 16.9689C9.99099 17.2824 11.6247 17.1215 13.1093 16.5065C14.594 15.8916 15.8629 14.8502 16.7557 13.514C17.6485 12.1779 18.125 10.607 18.125 9C18.1209 6.84638 17.2635 4.78216 15.7407 3.25932C14.2178 1.73648 12.1536 0.87913 10 0.875ZM12.9453 11.0547C13.0627 11.1732 13.1285 11.3332 13.1285 11.5C13.1285 11.6668 13.0627 11.8268 12.9453 11.9453C12.8259 12.0608 12.6662 12.1254 12.5 12.1254C12.3338 12.1254 12.1742 12.0608 12.0547 11.9453L10 9.88281L7.94532 11.9453C7.82585 12.0608 7.66618 12.1254 7.5 12.1254C7.33383 12.1254 7.17415 12.0608 7.05469 11.9453C6.93733 11.8268 6.87149 11.6668 6.87149 11.5C6.87149 11.3332 6.93733 11.1732 7.05469 11.0547L9.11719 9L7.05469 6.94531C6.95503 6.82388 6.90409 6.66971 6.9118 6.51281C6.91951 6.3559 6.9853 6.20747 7.09639 6.09638C7.20747 5.9853 7.3559 5.9195 7.51281 5.9118C7.66972 5.90409 7.82388 5.95502 7.94532 6.05469L10 8.11719L12.0547 6.05469C12.1761 5.95502 12.3303 5.90409 12.4872 5.9118C12.6441 5.9195 12.7925 5.9853 12.9036 6.09638C13.0147 6.20747 13.0805 6.3559 13.0882 6.51281C13.0959 6.66971 13.045 6.82388 12.9453 6.94531L10.8828 9L12.9453 11.0547Z" fill="#E14101"/>
</svg>
